<svg width="68" height="68" viewBox="0 0 68 68" fill="none" xmlns="http://www.w3.org/2000/svg">
<path d="M5.79291 46.5564V43.5468C5.79291 38.2169 8.06122 33.111 12.016 29.5382L13.755 27.9671C17.6563 24.4427 20.8043 20.2587 23.1125 15.5311C23.1629 15.5594 23.2165 15.5897 23.2779 15.6247C24.0783 16.0812 25.2879 16.7709 27.3994 16.7709C29.5106 16.7709 30.7201 16.0812 31.5208 15.6247C31.6331 15.5597 31.7466 15.4968 31.8612 15.436C34.1852 20.196 37.3379 24.4206 41.2705 27.9671L43.0095 29.5382C44.0178 30.4494 44.925 31.4666 45.7153 32.5723C45.866 32.7833 46.0944 32.9258 46.3502 32.9684C46.606 33.011 46.8683 32.9502 47.0793 32.7995C47.2903 32.6488 47.4328 32.4204 47.4754 32.1646C47.518 31.9088 47.4573 31.6465 47.3065 31.4355C46.4344 30.2152 45.4332 29.0925 44.3204 28.0869L42.5813 26.5159C38.8591 23.1532 35.8568 19.1602 33.6578 14.6475C34.4386 13.9967 34.8612 12.9583 34.6742 11.887C34.6089 11.5072 34.469 11.1441 34.2624 10.8187C34.0559 10.4933 33.7868 10.2122 33.4709 9.99148C33.109 9.73731 32.6941 9.56873 32.2575 9.49848L36.8242 1.93627C36.9409 1.74256 37.0041 1.52135 37.0075 1.29521C37.0108 1.06907 36.954 0.846102 36.843 0.649055C36.7317 0.452199 36.5701 0.288402 36.3748 0.174377C36.1795 0.0603519 35.9574 0.000179909 35.7312 1.61164e-07H34.1979C33.6226 -0.000161181 33.0589 0.16162 32.5712 0.466836L30.3865 1.83348C30.3767 1.83953 30.3655 1.84273 30.3541 1.84273C30.3426 1.84273 30.3314 1.83953 30.3217 1.83348L28.5822 0.74561C27.9324 0.33907 27.0927 0.339203 26.4431 0.74561L24.7038 1.83348C24.6941 1.83953 24.6829 1.84273 24.6714 1.84273C24.66 1.84273 24.6487 1.83953 24.639 1.83348L22.4541 0.466836C21.9665 0.161598 21.4028 -0.000186398 20.8276 1.61164e-07H19.2942C18.8343 1.61164e-07 18.4082 0.248891 18.1823 0.649453C17.9564 1.05002 17.9639 1.54315 18.2016 1.93641L22.7926 9.53952C21.6422 9.71909 20.6588 10.578 20.3822 11.7799C20.2948 12.1553 20.2826 12.5443 20.3465 12.9243C20.4104 13.3044 20.549 13.668 20.7544 13.9942C20.9165 14.2526 21.1179 14.4843 21.3512 14.6808C19.1536 19.1799 16.1572 23.1617 12.4442 26.5159L10.7051 28.0869C6.34037 32.03 3.83725 37.665 3.83725 43.5468V46.5564C3.83725 47.336 3.93341 48.1109 4.12306 48.8597C4.18683 49.1111 4.3478 49.3269 4.57061 49.4596C4.79341 49.5923 5.05979 49.6311 5.3112 49.5675C5.43568 49.536 5.55274 49.4802 5.65568 49.4035C5.75862 49.3267 5.84542 49.2304 5.91115 49.1201C5.97687 49.0098 6.02022 48.8876 6.03872 48.7605C6.05722 48.6334 6.0505 48.504 6.01896 48.3795C5.86843 47.7835 5.7925 47.1711 5.79291 46.5564ZM20.8276 1.95566C21.0361 1.95564 21.2404 2.01427 21.4172 2.12487L23.6021 3.49151C24.2517 3.89778 25.0912 3.89778 25.7411 3.49151L27.4805 2.40351C27.4902 2.39749 27.5014 2.39429 27.5129 2.39429C27.5243 2.39429 27.5355 2.39749 27.5452 2.40351L29.2847 3.49138C29.9342 3.89765 30.7738 3.89765 31.4236 3.49138L33.6085 2.12473C33.8688 1.94331 34.2237 1.94823 34.5281 1.95553C34.5281 1.95553 29.6962 9.96041 29.6881 9.97555C29.2597 10.1603 28.9099 10.3595 28.6144 10.528C27.7892 11.0491 27.0094 11.0492 26.1843 10.5278C25.9685 10.4048 25.7192 10.2631 25.4291 10.1222L20.4978 1.95553H20.8276V1.95566ZM22.288 12.2185C22.4067 11.6895 22.948 11.3629 23.4602 11.4847C24.2203 11.6595 24.749 11.961 25.2157 12.2271C26.1901 13.0426 28.6085 13.0423 29.5834 12.2271C30.1086 11.9276 30.7038 11.5882 31.6164 11.4288C32.1318 11.3273 32.6682 11.7044 32.7477 12.2238C32.8406 12.755 32.484 13.2627 31.9529 13.3554C31.3762 13.456 31.0124 13.6635 30.552 13.9262C29.8571 14.3224 28.9922 14.8154 27.3994 14.8154C25.8064 14.8154 24.9417 14.3222 24.2467 13.9261C23.9003 13.7286 23.5946 13.5546 23.2073 13.4398C22.6262 13.3409 22.1303 12.844 22.288 12.2185Z" fill="#1D5B79"/>
<path d="M27.4004 48.754C27.5289 48.754 27.656 48.7288 27.7747 48.6796C27.8933 48.6305 28.0012 48.5584 28.092 48.4676C28.1828 48.3768 28.2548 48.269 28.3039 48.1504C28.3531 48.0317 28.3784 47.9045 28.3783 47.7761V46.0858C31.2022 45.6386 32.8495 43.3574 33.2071 41.2301C33.6525 38.5811 32.2648 36.2773 29.6721 35.3608C29.2386 35.2081 28.8074 35.0495 28.3783 34.8848V28.4222C29.5965 28.6151 30.3286 29.2465 30.3805 29.2925C30.5724 29.4639 30.824 29.5528 31.081 29.5399C31.338 29.527 31.5795 29.4134 31.7533 29.2236C31.927 29.0339 32.019 28.7833 32.0092 28.5262C31.9995 28.2691 31.8888 28.0262 31.7012 27.8501C31.6304 27.7848 30.3951 26.6719 28.3782 26.4476V24.9935C28.3782 24.865 28.3529 24.7379 28.3038 24.6192C28.2546 24.5006 28.1826 24.3928 28.0918 24.302C28.001 24.2112 27.8932 24.1391 27.7745 24.09C27.6559 24.0409 27.5287 24.0156 27.4003 24.0156C27.2719 24.0156 27.1447 24.0409 27.0261 24.09C26.9074 24.1391 26.7996 24.2112 26.7088 24.302C26.618 24.3928 26.546 24.5006 26.4968 24.6192C26.4477 24.7379 26.4224 24.865 26.4224 24.9935V26.5278C26.164 26.576 25.9084 26.6381 25.6566 26.7137C23.9607 27.2244 22.693 28.6789 22.3481 30.5093C22.0353 32.1692 22.561 33.7651 23.7199 34.674C24.3916 35.2008 25.2379 35.6829 26.4224 36.199V44.1988C25.2353 44.1523 24.5175 43.936 23.2522 43.1082C23.1447 43.0378 23.0244 42.9893 22.8982 42.9655C22.772 42.9416 22.6424 42.9429 22.5167 42.9692C22.3909 42.9955 22.2716 43.0462 22.1655 43.1187C22.0595 43.1911 21.9687 43.2837 21.8984 43.3912C21.7564 43.6082 21.7065 43.8727 21.7595 44.1266C21.8126 44.3804 21.9643 44.6028 22.1813 44.7448C23.8404 45.8302 24.9014 46.102 26.4224 46.1547V47.7761C26.4224 48.0355 26.5255 48.2842 26.7089 48.4676C26.8923 48.651 27.1411 48.754 27.4004 48.754ZM24.9271 33.1353C24.3448 32.6785 24.0931 31.8111 24.2701 30.8715C24.4341 30.0014 25.0327 28.9441 26.2208 28.5862C26.2877 28.5662 26.355 28.5476 26.4225 28.5301V34.0436C25.799 33.7349 25.3134 33.4382 24.9271 33.1353ZM29.0202 37.2048C31.543 38.0965 31.3864 40.2631 31.2784 40.9059C31.0535 42.2441 30.0659 43.6734 28.3782 44.0894V36.9734C28.5855 37.0493 28.7975 37.126 29.0202 37.2048Z" fill="#1D5B79"/>
<path d="M63.511 37.5157C63.3107 37.3784 63.08 37.2918 62.8389 37.2636C62.5977 37.2354 62.3533 37.2664 62.1268 37.3538C60.4814 37.9895 58.7258 38.3117 56.9087 38.3117C54.7478 38.3117 52.6725 36.9671 51.215 34.6229C50.7236 33.774 49.3909 33.7746 48.8941 34.6228C47.4365 36.9672 45.3612 38.3118 43.2003 38.3118C41.3363 38.3118 39.5387 37.9728 37.8573 37.3041C37.6306 37.2139 37.3852 37.1806 37.1426 37.2072C36.9001 37.2338 36.6677 37.3194 36.4659 37.4566C36.2632 37.5941 36.0972 37.7791 35.9825 37.9956C35.8678 38.212 35.8079 38.4533 35.808 38.6983V47.2772C35.808 49.5127 36.205 51.709 36.9542 53.7721C35.9963 54.0641 35.1335 54.606 34.4545 55.3421C32.6715 57.2766 30.1414 58.3863 27.5129 58.3863C24.8843 58.3863 22.3543 57.2768 20.5715 55.3421C19.17 53.8214 17.0575 53.2002 15.0591 53.7202C14.4501 53.8782 13.8234 53.958 13.1943 53.9576C11.3041 53.9576 9.505 53.2455 8.12827 51.9522C7.93844 51.7793 7.68826 51.6881 7.43174 51.6981C7.17523 51.7081 6.93294 51.8186 6.75718 52.0058C6.58141 52.1929 6.48628 52.4416 6.4923 52.6982C6.49833 52.9549 6.60503 53.1989 6.78938 53.3775C8.53016 55.0127 10.8048 55.9133 13.1943 55.9133C13.9897 55.9137 14.7818 55.8127 15.5517 55.6127C16.8505 55.2747 18.2225 55.679 19.1334 56.6673C21.2855 59.0025 24.3396 60.3418 27.513 60.3418C30.6865 60.3418 33.7406 59.0025 35.8927 56.6673C36.3859 56.1322 37.0275 55.7562 37.7222 55.5886C38.7767 57.7635 40.2435 59.7419 42.0686 61.3953L48.8916 67.5762C49.2036 67.8587 49.5946 67.9999 49.9857 67.9999C50.3769 67.9999 50.768 67.8586 51.08 67.5762L57.9029 61.3954C61.8816 57.7913 64.1633 52.6453 64.1633 47.277V38.753C64.1632 38.5093 64.1037 38.2693 63.99 38.0537C63.8764 37.8382 63.712 37.6535 63.511 37.5157ZM62.2071 47.2772C62.2071 52.0943 60.1596 56.7119 56.5894 59.946L49.9852 65.9287L43.3811 59.946C39.8111 56.712 37.7635 52.0944 37.7635 47.2772V39.3564C39.4921 39.9612 41.3177 40.2673 43.2003 40.2673C45.326 40.2673 47.3564 39.3329 49.0074 37.6431V57.7392C49.0074 57.9986 49.1105 58.2473 49.2938 58.4307C49.4772 58.6141 49.726 58.7171 49.9853 58.7171C50.2447 58.7171 50.4934 58.6141 50.6768 58.4307C50.8602 58.2473 50.9632 57.9986 50.9632 57.7392V37.4991C52.6385 39.2799 54.7233 40.2673 56.9088 40.2673C58.7403 40.2673 60.5193 39.9774 62.2073 39.4046V47.2772H62.2071Z" fill="#1D5B79"/>
<path d="M40.6972 43.533C41.2136 43.533 41.6323 43.1143 41.6323 42.5979C41.6323 42.0814 41.2136 41.6627 40.6972 41.6627C40.1807 41.6627 39.7621 42.0814 39.7621 42.5979C39.7621 43.1143 40.1807 43.533 40.6972 43.533Z" fill="#1D5B79"/>
<path d="M59.2736 43.533C59.79 43.533 60.2087 43.1143 60.2087 42.5979C60.2087 42.0814 59.79 41.6627 59.2736 41.6627C58.7571 41.6627 58.3384 42.0814 58.3384 42.5979C58.3384 43.1143 58.7571 43.533 59.2736 43.533Z" fill="#1D5B79"/>
<path d="M49.9854 63.1809C50.5018 63.1809 50.9205 62.7623 50.9205 62.2458C50.9205 61.7293 50.5018 61.3107 49.9854 61.3107C49.4689 61.3107 49.0502 61.7293 49.0502 62.2458C49.0502 62.7623 49.4689 63.1809 49.9854 63.1809Z" fill="#1D5B79"/>
<path d="M53.9634 57.0472L52.2338 58.6141C52.1387 58.7003 52.0614 58.8044 52.0065 58.9205C51.9516 59.0366 51.92 59.1623 51.9137 59.2905C51.9074 59.4188 51.9264 59.547 51.9696 59.6679C52.0129 59.7889 52.0795 59.9001 52.1657 59.9952C52.2519 60.0904 52.356 60.1676 52.4721 60.2225C52.5881 60.2775 52.7139 60.309 52.8421 60.3153C52.9704 60.3217 53.0986 60.3027 53.2195 60.2594C53.3404 60.2162 53.4516 60.1496 53.5468 60.0634L55.2764 58.4966C58.4382 55.6323 60.2514 51.543 60.2514 47.2771V45.9909C60.2514 45.7316 60.1484 45.4828 59.965 45.2995C59.7816 45.1161 59.5329 45.013 59.2735 45.013C59.0142 45.013 58.7655 45.1161 58.5821 45.2995C58.3987 45.4828 58.2956 45.7316 58.2956 45.9909V47.2771C58.2956 50.992 56.7166 54.5531 53.9634 57.0472ZM46.0072 57.0472C43.254 54.5531 41.675 50.992 41.675 47.2772V45.9911C41.675 45.7317 41.5719 45.483 41.3885 45.2996C41.2051 45.1162 40.9564 45.0132 40.6971 45.0132C40.4377 45.0132 40.189 45.1162 40.0056 45.2996C39.8222 45.483 39.7192 45.7317 39.7192 45.9911V47.2772C39.7192 51.5432 41.5325 55.6326 44.6942 58.4967L46.4238 60.0636C46.6167 60.2331 46.8685 60.3199 47.1249 60.3053C47.3812 60.2907 47.6216 60.1758 47.794 59.9856C47.9664 59.7953 48.057 59.5448 48.0463 59.2882C48.0356 59.0317 47.9244 58.7896 47.7368 58.6144L46.0072 57.0472ZM46.125 23.2574C50.5644 23.2574 54.1762 19.6457 54.1762 15.2062C54.1762 10.7667 50.5644 7.15497 46.125 7.15497C41.6856 7.15497 38.0739 10.7667 38.0739 15.2062C38.0739 19.6457 41.6856 23.2574 46.125 23.2574ZM46.125 9.11063C49.4861 9.11063 52.2205 11.8451 52.2205 15.2062C52.2205 18.5673 49.4861 21.3016 46.125 21.3016C42.764 21.3016 40.0295 18.5671 40.0295 15.2062C40.0295 11.8451 42.764 9.11063 46.125 9.11063Z" fill="#1D5B79"/>
<path d="M44.3534 17.8382C44.4441 17.9292 44.5519 18.0013 44.6706 18.0505C44.7893 18.0997 44.9165 18.1249 45.045 18.1247C45.1734 18.1249 45.3007 18.0996 45.4193 18.0505C45.538 18.0013 45.6458 17.9292 45.7365 17.8382L49.875 13.6998C49.967 13.6093 50.0402 13.5014 50.0903 13.3824C50.1405 13.2635 50.1666 13.1358 50.1671 13.0067C50.1676 12.8776 50.1426 12.7496 50.0934 12.6303C50.0442 12.5109 49.9719 12.4024 49.8806 12.3112C49.7894 12.2199 49.6809 12.1476 49.5615 12.0984C49.4421 12.0493 49.3142 12.0242 49.1851 12.0248C49.056 12.0253 48.9283 12.0514 48.8093 12.1016C48.6904 12.1517 48.5825 12.2249 48.492 12.317L45.0451 15.7638L43.6675 14.3862C43.4829 14.2083 43.236 14.11 42.9797 14.1124C42.7235 14.1147 42.4784 14.2175 42.2972 14.3987C42.116 14.5799 42.0131 14.825 42.0107 15.0813C42.0083 15.3375 42.1067 15.5845 42.2845 15.769L44.3534 17.8382Z" fill="#1D5B79"/>
</svg>
