<svg width="74" height="74" viewBox="0 0 74 74" fill="none" xmlns="http://www.w3.org/2000/svg">
<g clip-path="url(#clip0_104_85)">
<path d="M35.1798 66.6057H10.8861C4.18677 66.6057 -0.146715 58.9781 3.4605 53.2065L18.4852 29.1659C18.5624 29.045 18.6149 28.9101 18.6396 28.7688C18.6643 28.6276 18.6607 28.4829 18.6292 28.343C18.5976 28.2031 18.5386 28.0709 18.4557 27.9539C18.3727 27.837 18.2674 27.7377 18.1458 27.6617C18.0242 27.5857 17.8887 27.5345 17.7473 27.5112C17.6058 27.4879 17.4611 27.4928 17.3215 27.5257C17.182 27.5586 17.0503 27.6189 16.9342 27.703C16.8181 27.7871 16.7197 27.8934 16.6449 28.0157L1.62004 52.0563C-2.8441 59.1988 2.46265 68.7761 10.8861 68.7761H35.1798C35.3223 68.7761 35.4634 68.7481 35.595 68.6936C35.7267 68.639 35.8463 68.5591 35.9471 68.4583C36.0479 68.3576 36.1278 68.2379 36.1823 68.1063C36.2369 67.9746 36.2649 67.8335 36.2649 67.691C36.2649 67.5485 36.2369 67.4073 36.1823 67.2757C36.1278 67.144 36.0479 67.0244 35.9471 66.9236C35.8464 66.8228 35.7267 66.7429 35.5951 66.6883C35.4634 66.6338 35.3223 66.6057 35.1798 66.6057ZM72.3801 52.0563L46.2673 10.2733C42.0568 3.54093 31.9428 3.54107 27.7325 10.2736L19.1508 24.005C19.0736 24.1258 19.0212 24.2608 18.9965 24.402C18.9718 24.5432 18.9753 24.688 19.0069 24.8279C19.0384 24.9677 19.0974 25.1 19.1804 25.2169C19.2634 25.3338 19.3687 25.4332 19.4903 25.5092C19.6119 25.5852 19.7473 25.6363 19.8888 25.6597C20.0303 25.683 20.175 25.6781 20.3145 25.6451C20.4541 25.6122 20.5857 25.552 20.7019 25.4679C20.818 25.3838 20.9163 25.2775 20.9911 25.1551L29.5727 11.4241C32.91 6.08757 41.0684 6.05375 44.4269 11.4238L70.5393 53.2065C74.1465 58.9781 69.8132 66.6057 63.1139 66.6057H39.9098C39.3105 66.6057 38.8247 67.0915 38.8247 67.6908C38.8247 68.2902 39.3105 68.776 39.9098 68.776H63.114C71.5375 68.776 76.8439 59.1986 72.3801 52.0563Z" fill="#1D5B79"/>
<path d="M52.6186 31.0303C52.7395 30.9548 52.8443 30.8562 52.927 30.7402C53.0098 30.6242 53.0689 30.493 53.1009 30.3542C53.133 30.2153 53.1374 30.0715 53.1138 29.9309C53.0903 29.7904 53.0393 29.6558 52.9637 29.535L42.426 12.6744C39.9908 8.7741 34.0245 8.74938 31.574 12.6741L5.46007 54.4565C2.87687 58.5894 5.97345 64.2472 10.8861 64.2472H63.114C67.9878 64.2472 71.1437 58.6222 68.54 54.4567L55.4715 33.5473C55.396 33.4265 55.2974 33.3217 55.1814 33.2389C55.0654 33.1562 54.9342 33.0971 54.7953 33.065C54.6565 33.033 54.5127 33.0286 54.3721 33.0521C54.2316 33.0757 54.097 33.1267 53.9762 33.2022C53.8553 33.2777 53.7505 33.3763 53.6678 33.4923C53.5851 33.6083 53.526 33.7395 53.4939 33.8784C53.4619 34.0172 53.4575 34.161 53.481 34.3016C53.5045 34.4421 53.5555 34.5767 53.631 34.6975L66.6997 55.607C68.4293 58.3739 66.3771 62.0768 63.1142 62.0768H10.8861C7.62284 62.0768 5.57107 58.3739 7.30054 55.6069L33.4147 13.824C35.0433 11.2157 38.9569 11.216 40.5854 13.8243L51.1233 30.6852C51.1988 30.806 51.2974 30.9108 51.4134 30.9936C51.5294 31.0763 51.6606 31.1354 51.7995 31.1674C51.9383 31.1995 52.0821 31.2039 52.2227 31.1804C52.3632 31.1568 52.4977 31.1058 52.6186 31.0303Z" fill="#1D5B79"/>
<path d="M40.7678 25.1269C40.3241 24.6456 39.6483 24.4995 39.0453 24.7549C33.2931 27.1907 31.0218 31.5349 30.1295 34.7504C29.6138 36.6089 29.4892 38.2982 29.4869 39.4802C29.0995 39.2254 28.6972 38.874 28.303 38.4403C27.3695 37.6854 26.5429 37.7882 25.823 38.7489C24.8035 40.6609 24.2645 42.8265 24.2645 45.0113C24.2645 52.1643 30.261 58.2706 37.4307 58.2706C44.5765 58.2695 50.4621 52.4741 50.5935 45.2596C50.6619 41.5015 49.1365 37.8762 46.4087 35.3135C45.0951 33.9999 44.0244 35.6039 43.7327 36.651C43.1853 35.2097 42.3334 34.4047 41.5944 33.7065C39.6109 31.8317 39.8013 29.1734 40.9997 26.8784C41.3036 26.2965 41.2125 25.6091 40.7678 25.1269ZM42.3039 51.1768C42.1306 53.7862 40.1859 56.1001 37.4294 56.1001C34.7436 56.0998 32.5579 53.894 32.5569 51.183V51.1673C32.5449 50.1966 32.733 49.1531 33.1166 48.0583L34.6008 48.4955C35.4014 48.6144 35.8653 48.2743 35.9924 47.4749C36.0382 45.0445 37.3887 43.5665 38.547 42.7434C39.0544 45.0773 40.3597 46.9452 41.7068 48.8895C42.0906 49.4439 42.3081 50.2775 42.3039 51.1768ZM40.1039 35.2837C41.1712 36.2924 42.093 37.1638 42.1296 40.0887C42.437 41.1887 43.0682 41.4254 44.0231 40.7989C44.0715 40.7448 45.0501 39.635 45.6862 37.688C47.4868 39.7551 48.4741 42.4438 48.4235 45.22C48.3582 48.8088 46.5926 51.9775 43.9163 53.9563C44.7044 52.091 44.6903 49.3869 43.4912 47.6537C42.1149 45.6677 40.8742 43.8998 40.5249 41.4874C40.1705 40.3308 39.4235 39.9537 38.2843 40.3561C37.1213 40.9835 34.5868 42.7067 33.962 46.0448L33.159 45.8082C32.3993 45.5845 31.6028 45.9717 31.3064 46.7086C30.6787 48.2677 30.3691 49.7769 30.3864 51.1835C30.3856 52.1326 30.5755 53.0722 30.9448 53.9466C28.215 51.9201 26.4348 48.6581 26.4348 45.0111C26.4349 43.4804 26.7485 41.9659 27.3563 40.561C28.2052 41.3322 29.3275 42.0531 30.5982 42.1193C31.3622 42.0627 31.7392 41.6512 31.7293 40.8849C31.7258 40.8592 31.3846 38.2812 32.2421 35.2547C33.2153 31.8202 35.2742 29.2154 38.3729 27.4922C37.3449 30.4376 37.8616 33.1649 40.1039 35.2837Z" fill="#1D5B79"/>
</g>
<defs>
<clipPath id="clip0_104_85">
<rect width="74" height="74" fill="white"/>
</clipPath>
</defs>
</svg>
