<svg width="62" height="62" viewBox="0 0 62 62" fill="none" xmlns="http://www.w3.org/2000/svg">
<g clip-path="url(#clip0_104_79)">
<path d="M17.4886 9.20256C12.5878 10.7671 7.38721 11.5058 3.1987 11.6675C1.91765 11.7171 0.905183 12.7671 0.90821 14.0486C0.925768 21.613 2.56041 29.2804 5.67579 36.1718C10.4064 46.6365 19.1964 54.9009 29.4753 59.8787C30.4458 60.3487 31.5798 60.3346 32.5447 59.8532C42.8797 54.6954 51.4273 47.0043 56.3243 36.1718C59.4373 29.2858 61.0717 21.6252 61.0919 14.0668C61.0953 12.7818 60.0852 11.7172 58.8007 11.6675C49.8149 11.3204 39.2844 9.09563 32.7383 2.48173C31.7918 1.52545 30.2449 1.54883 29.3078 2.51443C27.0763 4.814 24.1138 6.60364 20.8591 7.96716" stroke="#1D5B79" stroke-width="1.81641" stroke-miterlimit="10" stroke-linecap="round" stroke-linejoin="round"/>
<path d="M45.1318 46.3378C48.4296 42.8823 51.0641 38.9883 53.0139 34.6753C55.5814 28.9961 57.081 22.7338 57.3965 16.4286C57.4292 15.7751 56.9305 15.2134 56.2778 15.1666C43.771 14.2683 36.234 10.3157 31.8208 6.57594C31.3725 6.19607 30.7154 6.19801 30.2654 6.57582C23.8651 11.9508 13.9569 14.4929 5.71101 15.1559C5.0628 15.208 4.57068 15.7674 4.60301 16.4169C4.91712 22.726 6.41699 28.9923 8.986 34.6754C13.0943 43.7632 20.6926 51.4193 30.427 56.2979C30.7725 56.471 31.1803 56.4744 31.5241 56.2981C35.691 54.1613 39.3665 51.6705 42.5393 48.841" stroke="#1D5B79" stroke-width="1.81641" stroke-miterlimit="10" stroke-linecap="round" stroke-linejoin="round"/>
<path d="M43.4711 28.6708H44.257C45.6622 28.6708 46.8013 29.8099 46.8013 31.2151V31.2155C46.8013 32.6206 45.6622 33.7598 44.257 33.7598H43.4711M18.2867 33.7597H17.743C16.3379 33.7597 15.1987 32.6205 15.1987 31.2154V31.215C15.1987 29.8098 16.3379 28.6707 17.743 28.6707H18.2867M43.3112 28.0163C43.3129 12.918 18.6976 12.9429 18.6976 28.0163V33.7225C18.6976 48.5837 43.3041 48.5592 43.3025 33.7225C43.3024 31.8133 43.3112 28.0163 43.3112 28.0163Z" stroke="#1D5B79" stroke-width="1.81641" stroke-miterlimit="10" stroke-linecap="round" stroke-linejoin="round"/>
<path d="M28.3981 30.099C27.0019 28.7032 24.7424 28.7032 23.3462 30.099M38.6539 30.099C37.2577 28.7032 34.9982 28.7032 33.602 30.099M27.1856 35.8435C28.1122 39.5565 33.8879 39.5565 34.8143 35.8435M30.8322 16.7019C30.8322 16.7019 30.8503 15.1988 32.0452 14.4749" stroke="#1D5B79" stroke-width="1.81641" stroke-miterlimit="10" stroke-linecap="round" stroke-linejoin="round"/>
</g>
<defs>
<clipPath id="clip0_104_79">
<rect width="62" height="62" fill="white"/>
</clipPath>
</defs>
</svg>
