<svg width="64" height="64" viewBox="0 0 64 64" fill="none" xmlns="http://www.w3.org/2000/svg">
<g clip-path="url(#clip0_104_74)">
<path d="M31.8791 32.5588L25.7406 30.6973L25.0729 29.3618C24.8647 28.9454 24.3889 28.7528 23.9584 28.8861V28.6538C26.5004 26.8174 28.2255 23.9169 28.4701 20.6098C29.6614 20.2769 30.5987 19.3083 30.795 18.1008C30.9189 17.3391 30.7571 16.5893 30.3869 15.966C31.5719 15.3456 32.3829 14.1044 32.3829 12.6768C32.3829 11.382 31.6968 10.2023 30.6299 9.53763C30.6887 9.29563 30.7189 9.04626 30.7189 8.79401C30.7189 7.05363 29.303 5.63776 27.5626 5.63776C27.1451 5.63776 26.7466 5.72001 26.3816 5.86788C24.575 4.22663 22.2618 3.32788 19.797 3.32788H15.3595C12.9056 3.32788 10.5828 4.22813 8.77462 5.86776C8.39956 5.71564 7.99861 5.63754 7.59387 5.63776C5.8535 5.63776 4.43762 7.05363 4.43762 8.79401C4.43762 9.04638 4.46775 9.29576 4.52663 9.53763C3.45963 10.2023 2.77362 11.382 2.77362 12.6768C2.77362 14.1036 3.58362 15.3441 4.76737 15.9649C4.38476 16.6068 4.24103 17.3632 4.3615 18.1008C4.55775 19.3083 5.49513 20.2769 6.68638 20.6098C6.9305 23.9124 8.65137 26.8093 11.1876 28.646V28.8826C10.7599 28.7556 10.29 28.9488 10.0835 29.3616L9.41625 30.696L3.04 32.6089C1.22162 33.1545 0 34.7965 0 36.6949V59.7343C0 59.9829 0.098772 60.2214 0.274587 60.3972C0.450403 60.573 0.68886 60.6718 0.9375 60.6718C1.18614 60.6718 1.4246 60.573 1.60041 60.3972C1.77623 60.2214 1.875 59.9829 1.875 59.7343V36.6949C1.875 36.6261 1.87812 36.5581 1.88375 36.4906L5.63112 40.238C6.29225 40.8991 6.65625 41.778 6.65625 42.7129V59.7341C6.65625 59.9828 6.75502 60.2212 6.93084 60.397C7.10665 60.5729 7.34511 60.6716 7.59375 60.6716C7.84239 60.6716 8.08085 60.5729 8.25666 60.397C8.43248 60.2212 8.53125 59.9828 8.53125 59.7341V42.7129C8.53125 41.2771 7.97213 39.9274 6.95687 38.9121L2.82838 34.7836C3.05436 34.6144 3.30836 34.4862 3.57875 34.405L7.80263 33.1379C8.13338 34.0675 10.5896 40.452 17.0581 44.7643C17.2121 44.867 17.393 44.9219 17.5781 44.9219C17.7632 44.9219 17.9442 44.867 18.0981 44.7643C24.7833 40.3075 27.168 33.7194 27.3643 33.149L31.3351 34.3531C31.4234 34.38 31.5152 34.3937 31.6075 34.3938C31.8321 34.3933 32.0491 34.3123 32.2191 34.1654C32.389 34.0184 32.5005 33.8154 32.5334 33.5932C32.5663 33.371 32.5184 33.1444 32.3983 32.9545C32.2782 32.7647 32.094 32.6242 31.8791 32.5588ZM24.237 31.8828L21.0689 35.843C21.053 35.8641 21.0322 35.881 21.0083 35.8922C20.9845 35.9034 20.9582 35.9087 20.9319 35.9075C20.9056 35.9075 20.8797 35.9013 20.8562 35.8893C20.8328 35.8774 20.8126 35.86 20.7971 35.8388L19.0023 33.4455L23.8151 31.039L24.237 31.8828ZM17.5781 32.0611L13.0625 29.8034V29.7405C14.4395 30.3683 15.9686 30.7186 17.5781 30.7186C19.1323 30.7202 20.6686 30.3882 22.0834 29.7449V29.8085L17.5781 32.0611ZM27.5625 7.51288C28.269 7.51288 28.8438 8.08763 28.8438 8.79413C28.8438 9.04438 28.77 9.28801 28.6306 9.49863C28.549 9.62193 28.4977 9.7628 28.4809 9.90973C28.4641 10.0567 28.4824 10.2055 28.5341 10.344C28.5859 10.4825 28.6696 10.6068 28.7786 10.7068C28.8875 10.8068 29.0186 10.8796 29.161 10.9193C29.954 11.14 30.5079 11.8628 30.5079 12.6769C30.5079 13.6893 29.6842 14.5129 28.6719 14.5129C27.6595 14.5129 26.8359 13.6893 26.8359 12.6769C26.8359 12.2233 27.0103 11.7839 27.3269 11.4399C27.427 11.3312 27.5 11.2004 27.5399 11.0581C27.5798 10.9158 27.5855 10.7661 27.5566 10.6212C27.5276 10.4763 27.4648 10.3403 27.3733 10.2243C27.2817 10.1083 27.1641 10.0156 27.0299 9.95376C26.5751 9.74388 26.2812 9.28876 26.2812 8.79413C26.2812 8.08763 26.856 7.51288 27.5625 7.51288ZM4.64838 12.6769C4.6485 11.8629 5.20225 11.1401 5.99525 10.9194C6.13771 10.8797 6.26877 10.8069 6.37772 10.707C6.48668 10.607 6.57043 10.4826 6.62215 10.3441C6.67388 10.2056 6.69209 10.0568 6.67531 9.90985C6.65854 9.76293 6.60724 9.62206 6.52563 9.49876C6.3868 9.29001 6.31266 9.04495 6.3125 8.79426C6.3125 8.08776 6.88725 7.51301 7.59375 7.51301C8.30025 7.51301 8.875 8.08763 8.875 8.79413C8.875 9.28876 8.58113 9.74401 8.12638 9.95376C7.99218 10.0156 7.87452 10.1083 7.78299 10.2243C7.69145 10.3403 7.62864 10.4763 7.59969 10.6212C7.57073 10.7661 7.57644 10.9158 7.61636 11.0581C7.65628 11.2004 7.72927 11.3312 7.82937 11.4399C8.146 11.7839 8.32038 12.2233 8.32038 12.6769C8.32038 13.6893 7.49675 14.5129 6.48438 14.5129C5.472 14.5129 4.64838 13.6893 4.64838 12.6769ZM8.53125 19.7968C8.53125 19.5481 8.43248 19.3097 8.25666 19.1338C8.08085 18.958 7.84239 18.8593 7.59375 18.8593C6.90425 18.8593 6.31012 18.4039 6.212 17.8C6.10012 17.112 6.52112 16.4791 7.19112 16.3281C7.22738 16.32 7.26225 16.3093 7.2965 16.2973C8.95325 15.9258 10.1952 14.4441 10.1952 12.677C10.1952 12.1036 10.0608 11.5438 9.80725 11.0364C10.3988 10.4528 10.75 9.64776 10.75 8.79413C10.7505 8.18436 10.5732 7.58766 10.24 7.07701C11.6709 5.86576 13.4668 5.20301 15.3594 5.20301H19.7969C21.6979 5.20301 23.4884 5.86251 24.9177 7.07476C24.5835 7.58587 24.4057 8.18343 24.4062 8.79413C24.4062 9.64776 24.7575 10.4528 25.349 11.0364C25.0939 11.5457 24.9611 12.1074 24.961 12.677C24.961 14.4798 26.2535 15.9858 27.9604 16.3188C27.9891 16.3305 28.0186 16.3411 28.049 16.3501C28.5851 16.5103 29.0647 17.0596 28.9444 17.8001C28.8462 18.404 28.2521 18.8594 27.5626 18.8594C27.314 18.8594 27.0755 18.9582 26.8997 19.134C26.7239 19.3098 26.6251 19.5482 26.6251 19.7969C26.6251 24.7854 22.5668 28.8438 17.5783 28.8438C12.5898 28.8438 8.53125 24.7853 8.53125 19.7968ZM11.0441 31.6329L11.3411 31.039L16.1541 33.4455L14.3593 35.8388C14.3438 35.86 14.3236 35.8774 14.3001 35.8893C14.2767 35.9013 14.2508 35.9075 14.2245 35.9075C14.1835 35.9108 14.131 35.8974 14.0875 35.843L10.9444 31.9141C10.9923 31.8266 11.0259 31.7318 11.0441 31.6329ZM17.5781 42.8463C13.3811 39.8634 11.1222 35.9595 10.1622 33.9379L12.6234 37.0143C12.8143 37.2546 13.0573 37.4486 13.3339 37.5817C13.6106 37.7147 13.9138 37.7834 14.2207 37.7825L14.2537 37.7823C14.5662 37.7784 14.8736 37.7025 15.1521 37.5606C15.4305 37.4186 15.6724 37.2144 15.8591 36.9638L16.6405 35.9219V39.7656C16.6405 40.0143 16.7393 40.2527 16.9151 40.4285C17.0909 40.6044 17.3294 40.7031 17.578 40.7031C17.8266 40.7031 18.0651 40.6044 18.2409 40.4285C18.4167 40.2527 18.5155 40.0143 18.5155 39.7656V35.9219L19.2969 36.9638C19.4869 37.2189 19.7341 37.4259 20.0186 37.5681C20.3032 37.7103 20.6171 37.7837 20.9352 37.7825C21.5604 37.7825 22.141 37.5038 22.5326 37.0143L25.0012 33.9284C24.049 35.9445 21.7969 39.8495 17.5781 42.8463Z" fill="#1D5B79"/>
<path d="M20.3875 22.3969C20.2919 22.3193 20.1819 22.2613 20.0639 22.2263C19.9459 22.1912 19.8222 22.1797 19.6997 22.1925C19.5773 22.2053 19.4585 22.242 19.3503 22.3007C19.242 22.3594 19.1464 22.4388 19.0689 22.5344C18.6701 23.0261 18.1408 23.2969 17.5783 23.2969C17.0158 23.2969 16.4864 23.0261 16.0876 22.5344C16.0105 22.4376 15.9149 22.357 15.8065 22.2973C15.698 22.2376 15.5788 22.1999 15.4557 22.1866C15.3326 22.1732 15.2081 22.1843 15.0894 22.2193C14.9706 22.2543 14.86 22.3125 14.7638 22.3905C14.6677 22.4685 14.5879 22.5647 14.5292 22.6737C14.4704 22.7827 14.4338 22.9022 14.4215 23.0254C14.4092 23.1486 14.4215 23.273 14.4575 23.3915C14.4935 23.5099 14.5527 23.62 14.6315 23.7155C15.3821 24.641 16.4562 25.1718 17.5784 25.1718C18.7005 25.1718 19.7742 24.6409 20.525 23.7155C20.6816 23.5224 20.7551 23.275 20.7293 23.0277C20.7035 22.7804 20.5806 22.5535 20.3875 22.3969ZM13.1406 16.6405C12.892 16.6405 12.6535 16.7393 12.4777 16.9151C12.3019 17.0909 12.2031 17.3294 12.2031 17.578V18.6874C12.2031 18.936 12.3019 19.1745 12.4777 19.3503C12.6535 19.5261 12.892 19.6249 13.1406 19.6249C13.3893 19.6249 13.6277 19.5261 13.8035 19.3503C13.9794 19.1745 14.0781 18.936 14.0781 18.6874V17.578C14.0781 17.3294 13.9794 17.0909 13.8035 16.9151C13.6277 16.7393 13.3893 16.6405 13.1406 16.6405ZM22.0156 16.6405C21.767 16.6405 21.5285 16.7393 21.3527 16.9151C21.1769 17.0909 21.0781 17.3294 21.0781 17.578V18.6874C21.0781 18.936 21.1769 19.1745 21.3527 19.3503C21.5285 19.5261 21.767 19.6249 22.0156 19.6249C22.2643 19.6249 22.5027 19.5261 22.6785 19.3503C22.8544 19.1745 22.9531 18.936 22.9531 18.6874V17.578C22.9531 17.3294 22.8544 17.0909 22.6785 16.9151C22.5027 16.7393 22.2643 16.6405 22.0156 16.6405ZM31.5535 36.8839C31.3777 36.7081 31.1392 36.6093 30.8906 36.6093C30.642 36.6093 30.4036 36.7081 30.2278 36.8839L28.1994 38.9123C27.1841 39.9275 26.625 41.2773 26.625 42.713V59.7343C26.625 59.9829 26.7238 60.2214 26.8996 60.3972C27.0754 60.573 27.3139 60.6718 27.5625 60.6718C27.8111 60.6718 28.0496 60.573 28.2254 60.3972C28.4012 60.2214 28.5 59.9829 28.5 59.7343V42.713C28.5 41.7781 28.8641 40.8991 29.5251 40.2381L31.5535 38.2098C31.6406 38.1227 31.7096 38.0193 31.7567 37.9056C31.8039 37.7919 31.8281 37.6699 31.8281 37.5468C31.8281 37.4237 31.8039 37.3018 31.7567 37.188C31.7096 37.0743 31.6406 36.9709 31.5535 36.8839ZM50.3406 30.1625C50.245 30.0849 50.1351 30.027 50.0171 29.9919C49.899 29.9568 49.7753 29.9454 49.6528 29.9581C49.5304 29.9709 49.4116 30.0077 49.3034 30.0663C49.1952 30.125 49.0995 30.2044 49.022 30.3C48.6232 30.7918 48.0939 31.0625 47.5314 31.0625C46.9689 31.0625 46.4395 30.7918 46.0407 30.3C45.9636 30.2032 45.868 30.1226 45.7596 30.0629C45.6511 30.0032 45.5319 29.9656 45.4088 29.9522C45.2858 29.9388 45.1612 29.9499 45.0425 29.9849C44.9237 30.0199 44.8131 30.0781 44.7169 30.1561C44.6208 30.2341 44.541 30.3304 44.4823 30.4393C44.4235 30.5483 44.387 30.6679 44.3747 30.791C44.3624 30.9142 44.3746 31.0386 44.4106 31.1571C44.4467 31.2755 44.5058 31.3857 44.5846 31.4811C45.3351 32.4065 46.4091 32.9374 47.5312 32.9374C48.6534 32.9374 49.7274 32.4065 50.4781 31.4811C50.6347 31.288 50.7082 31.0406 50.6825 30.7933C50.6567 30.5461 50.5337 30.3191 50.3406 30.1625ZM37.5469 46.5936C37.2982 46.5936 37.0598 46.6924 36.884 46.8682C36.7081 47.044 36.6094 47.2825 36.6094 47.5311V59.7343C36.6094 59.9829 36.7081 60.2214 36.884 60.3972C37.0598 60.573 37.2982 60.6718 37.5469 60.6718C37.7955 60.6718 38.034 60.573 38.2098 60.3972C38.3856 60.2214 38.4844 59.9829 38.4844 59.7343V47.5311C38.4844 47.2825 38.3856 47.044 38.2098 46.8682C38.034 46.6924 37.7955 46.5936 37.5469 46.5936ZM57.5156 46.5936C57.267 46.5936 57.0285 46.6924 56.8527 46.8682C56.6769 47.044 56.5781 47.2825 56.5781 47.5311V59.7343C56.5781 59.9829 56.6769 60.2214 56.8527 60.3972C57.0285 60.573 57.267 60.6718 57.5156 60.6718C57.7643 60.6718 58.0027 60.573 58.1785 60.3972C58.3544 60.2214 58.4531 59.9829 58.4531 59.7343V47.5311C58.4531 47.2825 58.3544 47.044 58.1785 46.8682C58.0027 46.6924 57.7643 46.5936 57.5156 46.5936Z" fill="#1D5B79"/>
<path d="M60.8659 40.187C61.4592 39.4348 61.7816 38.5047 61.7812 37.5468C61.7812 35.9669 60.9147 34.553 59.5588 33.8175C59.5854 33.2012 59.4576 32.5881 59.187 32.0337C58.9164 31.4794 58.5116 31.0015 58.0093 30.6434C58.0731 30.4271 58.1323 30.2094 58.1823 29.9889C58.3038 29.4535 58.3813 28.8878 58.4177 28.2678C59.8933 26.0905 60.6718 23.5505 60.6718 20.9061C60.6718 13.6604 54.7769 7.7655 47.5312 7.7655C40.2854 7.7655 34.3906 13.6604 34.3906 20.9061C34.3906 23.5508 35.1692 26.0908 36.6448 28.2679C36.6812 28.8883 36.7587 29.4539 36.8801 29.9888C36.9301 30.2091 36.9893 30.4269 37.0531 30.6433C36.5508 31.0014 36.146 31.4793 35.8754 32.0337C35.6048 32.588 35.477 33.2012 35.5036 33.8175C34.1476 34.553 33.2812 35.967 33.2812 37.5468C33.2808 38.5047 33.6033 39.4348 34.1964 40.187C32.2644 41.3463 31.0624 43.4286 31.0624 45.7396V59.7347C31.0624 59.9834 31.1612 60.2218 31.337 60.3977C31.5128 60.5735 31.7513 60.6722 31.9999 60.6722C32.2486 60.6722 32.487 60.5735 32.6629 60.3977C32.8387 60.2218 32.9374 59.9834 32.9374 59.7347V45.7396C32.9374 43.8439 34.0748 42.164 35.8349 41.4599L36.0143 41.3881C38.7872 45.1356 43.0589 47.3592 47.5313 47.3592C52.0648 47.3592 56.2429 45.1869 59.0474 41.3879L59.2276 41.4599C60.9878 42.164 62.1251 43.8439 62.1251 45.7396V59.7342C62.1251 59.9829 62.2238 60.2213 62.3997 60.3972C62.5755 60.573 62.8139 60.6717 63.0626 60.6717C63.3112 60.6717 63.5497 60.573 63.7255 60.3972C63.9013 60.2213 64.0001 59.9829 64.0001 59.7342V45.7396C63.9999 43.4286 62.7979 41.3463 60.8659 40.187ZM36.2656 20.9061C36.2656 14.6943 41.3193 9.6405 47.5312 9.6405C53.7431 9.6405 58.7968 14.6943 58.7968 20.9061C58.7968 22.4863 58.4722 24.0224 57.8477 25.4401C56.4969 22.5335 53.4947 21.719 50.5741 20.9288C48.2129 20.2899 45.7714 19.6291 43.6792 17.9554C43.5701 17.868 43.4428 17.8062 43.3066 17.7744C43.1705 17.7426 43.029 17.7416 42.8924 17.7716C42.7559 17.8016 42.6278 17.8618 42.5175 17.9477C42.4072 18.0336 42.3175 18.1431 42.2551 18.2681C42.2453 18.2875 41.2632 20.2185 39.3462 21.177C39.2361 21.232 39.1379 21.3083 39.0572 21.4013C38.9765 21.4943 38.915 21.6022 38.876 21.719C38.8371 21.8358 38.8216 21.9592 38.8303 22.082C38.839 22.2048 38.8719 22.3246 38.9269 22.4348C38.982 22.5449 39.0582 22.6431 39.1512 22.7238C39.2442 22.8045 39.3522 22.866 39.469 22.905C39.5858 22.9439 39.7091 22.9594 39.8319 22.9507C39.9547 22.9419 40.0746 22.9091 40.1847 22.854C41.7106 22.091 42.7619 20.8795 43.3547 20.0408C45.5384 21.5085 47.9379 22.1579 50.0843 22.7386C50.7888 22.9293 51.4372 23.11 52.0298 23.2984C52.0093 23.298 51.9891 23.2969 51.9686 23.2969C50.8261 23.2969 49.8234 23.907 49.2694 24.8186C48.7512 24.5519 48.1563 24.4063 47.5312 24.4063C46.9059 24.4063 46.3109 24.5519 45.7928 24.8186C45.2387 23.9071 44.2361 23.2969 43.0937 23.2969C41.3533 23.2969 39.9374 24.7128 39.9374 26.4531C39.9374 28.1935 41.3533 29.6094 43.0937 29.6094C44.7157 29.6094 46.0553 28.3794 46.2301 26.8031C46.5359 26.4776 47.0142 26.2813 47.5312 26.2813C48.0481 26.2813 48.5263 26.4776 48.8322 26.8031C49.0069 28.3794 50.3466 29.6094 51.9686 29.6094C53.7089 29.6094 55.1248 28.1935 55.1248 26.4531C55.1248 25.5414 54.7358 24.7191 54.1156 24.1425C55.4563 24.8731 56.2809 25.8931 56.5866 27.6946C56.5704 27.7586 56.5609 27.8242 56.5583 27.8901C56.5359 28.5153 56.4689 29.066 56.3537 29.574C55.9074 31.5406 54.7922 33.3264 53.2136 34.6025C51.5892 35.9155 49.6243 36.6095 47.5311 36.6095C45.4378 36.6095 43.4728 35.9155 41.8486 34.6025C40.2699 33.3265 39.1548 31.5406 38.7084 29.574C38.5934 29.067 38.5264 28.5168 38.5039 27.8918C38.4956 27.6528 38.396 27.4261 38.2256 27.2584C36.9427 25.3833 36.2656 23.1905 36.2656 20.9061ZM53.2499 26.453C53.2499 27.1595 52.6752 27.7343 51.9687 27.7343C51.2622 27.7343 50.6874 27.1595 50.6874 26.453C50.6874 25.7465 51.2622 25.1718 51.9687 25.1718C52.6752 25.1718 53.2499 25.7465 53.2499 26.453ZM44.3749 26.453C44.3749 27.1595 43.8002 27.7343 43.0937 27.7343C42.3872 27.7343 41.8124 27.1595 41.8124 26.453C41.8124 25.7465 42.3872 25.1718 43.0937 25.1718C43.8002 25.1718 44.3749 25.7465 44.3749 26.453ZM52.9209 38.9343C51.4633 40.2874 49.5566 41.0466 47.5311 41.0466C45.5077 41.0466 43.5999 40.2868 42.1418 38.934C42.7201 38.6821 43.2091 38.2617 43.5449 37.7278C44.8077 38.2224 46.1609 38.4843 47.5312 38.4843C48.9014 38.4843 50.2547 38.2224 51.5174 37.7278C51.8534 38.2618 52.3425 38.6823 52.9209 38.9343ZM36.0048 39.3725C35.739 39.1483 35.5254 38.8687 35.3788 38.5533C35.2322 38.238 35.1563 37.8944 35.1563 37.5466C35.1562 36.51 35.8284 35.6001 36.8289 35.2825C37.0594 35.2093 37.2527 35.0499 37.3685 34.8376C37.4842 34.6252 37.5134 34.3764 37.4499 34.143C37.3987 33.9549 37.3749 33.8026 37.3749 33.664C37.3749 33.2293 37.5274 32.8218 37.7907 32.5005C38.4856 33.8666 39.4656 35.087 40.6699 36.0605C41.0418 36.3607 41.4331 36.6359 41.8414 36.8843C41.7081 37.0383 41.5399 37.1583 41.3508 37.2341L36.0048 39.3725ZM47.5312 45.4842C43.7524 45.4842 40.2604 43.7386 37.8222 40.665L40.2547 39.6921C42.1156 41.7516 44.7353 42.9217 47.5313 42.9217C50.3299 42.9217 52.9469 41.752 54.8077 39.692L57.2411 40.6654C54.8017 43.738 51.3038 45.4842 47.5312 45.4842ZM59.0576 39.3726L53.7114 37.2341C53.5224 37.1583 53.3542 37.0383 53.2209 36.8843C53.6292 36.6358 54.0205 36.3606 54.3924 36.0605C55.5968 35.087 56.5768 33.8665 57.2717 32.5005C57.5408 32.8285 57.6878 33.2397 57.6874 33.664C57.6874 33.8026 57.6637 33.9549 57.6124 34.143C57.549 34.3764 57.5781 34.6252 57.6939 34.8376C57.8096 35.0499 58.0029 35.2094 58.2334 35.2825C59.2339 35.6001 59.9062 36.51 59.9062 37.5468C59.9062 37.8945 59.8302 38.2381 59.6837 38.5535C59.5371 38.8688 59.3234 39.1484 59.0576 39.3726Z" fill="#1D5B79"/>
</g>
<defs>
<clipPath id="clip0_104_74">
<rect width="64" height="64" fill="white"/>
</clipPath>
</defs>
</svg>
