<svg width="74" height="74" viewBox="0 0 74 74" fill="none" xmlns="http://www.w3.org/2000/svg">
<g clip-path="url(#clip0_104_234)">
<path d="M18.0967 45.8838H13.953C12.917 45.8838 12.074 46.7267 12.074 47.7628V55.0819C12.074 56.1179 12.9169 56.961 13.953 56.961H18.0966C19.1326 56.961 19.9756 56.118 19.9756 55.0819V47.7628C19.9756 46.7267 19.1327 45.8838 18.0967 45.8838ZM17.8075 54.7927H14.2421V48.0518H17.8075V54.7927ZM66.3498 38.7241C66.1445 38.5229 65.8676 38.4115 65.5802 38.4143C65.2927 38.4171 65.0181 38.534 64.8167 38.7392L57.0589 46.6511L54.3867 43.8551C54.2883 43.7522 54.1707 43.6696 54.0404 43.6122C53.9102 43.5547 53.7699 43.5235 53.6275 43.5203C53.4852 43.517 53.3436 43.5419 53.2109 43.5934C53.0782 43.6449 52.9569 43.7221 52.854 43.8205C52.7511 43.9188 52.6686 44.0365 52.6111 44.1667C52.5537 44.297 52.5224 44.4373 52.5192 44.5796C52.516 44.7219 52.5408 44.8635 52.5923 44.9962C52.6438 45.1289 52.721 45.2502 52.8194 45.3531L56.2654 48.9585C56.3658 49.0636 56.4863 49.1474 56.6198 49.2049C56.7532 49.2624 56.8968 49.2926 57.0421 49.2935C57.1874 49.2944 57.3315 49.2661 57.4656 49.2102C57.5997 49.1544 57.7213 49.0721 57.823 48.9684L66.3648 40.257C66.5661 40.0518 66.6775 39.7749 66.6747 39.4875C66.6719 39.2 66.555 38.9254 66.3498 38.7241Z" fill="#1D5B79"/>
<path d="M72.9158 40.3343C73.5146 40.3343 73.9998 39.8491 73.9998 39.2503V31.141C73.9998 29.5972 72.3351 28.6237 70.9888 29.3836C68.3373 30.8813 65.838 30.9324 63.5602 29.5352C61.7438 28.4213 60.7269 26.791 60.6864 26.7253C60.3169 26.1207 59.6734 25.7599 58.9645 25.7599H58.9632C58.7156 25.76 58.4701 25.8053 58.2388 25.8935L50.3974 14.0292C50.0835 13.4245 49.5784 12.9405 48.9608 12.6528V7.13001H49.0722C49.671 7.13001 50.1562 6.64467 50.1562 6.04602C50.1562 5.44737 49.671 4.96204 49.0722 4.96204H37.7644C37.1656 4.96204 36.6804 5.44737 36.6804 6.04602C36.6804 6.64467 37.1656 7.13001 37.7644 7.13001H37.8421V12.3558H33.2067C32.9192 12.3558 32.6435 12.47 32.4402 12.6733C32.2369 12.8766 32.1227 13.1523 32.1227 13.4398C32.1227 13.7273 32.2369 14.003 32.4402 14.2063C32.6435 14.4096 32.9192 14.5238 33.2067 14.5238H37.8421V22.9573C37.8421 23.7252 38.4668 24.3499 39.2347 24.3499H47.5439C48.325 24.3499 48.9606 23.7144 48.9606 22.9332V15.787L56.6841 27.4731C54.1035 30.5882 50.7677 31.5457 46.9396 29.3833C45.5927 28.6228 43.9288 29.598 43.9288 31.1407V31.9186H3.11284C2.43037 31.9186 1.98767 31.2211 2.24349 30.616L12.4506 15.1723C12.4763 15.1335 12.4994 15.0931 12.5198 15.0513C12.5978 14.8935 12.7182 14.7606 12.8676 14.6674C13.0169 14.5743 13.1893 14.5246 13.3653 14.5239H28.1475C28.435 14.5239 28.7107 14.4097 28.914 14.2064C29.1173 14.0032 29.2315 13.7274 29.2315 13.44C29.2315 13.1525 29.1173 12.8767 28.914 12.6735C28.7107 12.4702 28.435 12.356 28.1475 12.356H13.3656C12.2131 12.356 11.1392 13.0101 10.6078 14.0289L0.389731 29.4891C0.364041 29.528 0.340915 29.5684 0.3205 29.6103C-0.691508 31.6778 0.81552 34.0867 3.11313 34.0867H3.34872V36.3753C3.34872 37.5735 4.32358 38.5485 5.52189 38.5485H6.69968V66.87H4.01992C3.42127 66.87 2.93594 67.3552 2.93594 67.954C2.93594 68.5528 3.42127 69.0379 4.01992 69.0379H57.3345C57.9333 69.0379 58.4184 68.5528 58.4184 67.954C58.4184 67.3552 57.9333 66.87 57.3345 66.87H54.3055V59.6092C55.5034 60.2482 56.7647 60.7605 58.069 61.1377L58.0852 61.1423C58.8571 61.3659 59.068 61.3672 59.8146 61.1507L59.8599 61.1377C67.7208 58.8605 73.0171 52.0382 73.8719 44.4301C73.904 44.1444 73.8213 43.8576 73.642 43.6329C73.4627 43.4082 73.2015 43.2639 72.9158 43.2317C72.3189 43.1638 71.7844 43.5931 71.7175 44.1878C70.9599 50.9306 66.2701 57.0235 59.2569 59.055L59.2113 59.0682C59.1297 59.0924 59.0477 59.1154 58.9654 59.1373C58.9026 59.1219 58.7941 59.0904 58.6886 59.0599L58.6722 59.0552C52.5889 57.2933 48.1923 52.4339 46.6837 46.7089C46.2937 45.2288 46.0966 43.7045 46.0972 42.1739V31.3948C51.1705 34.1365 56.1151 32.253 58.9642 28.0524C59.3482 28.6231 60.5298 30.2197 62.4269 31.3832C64.4529 32.6262 67.7161 33.6201 71.832 31.3948V39.2503C71.8319 39.3927 71.86 39.5336 71.9144 39.6652C71.9689 39.7967 72.0487 39.9162 72.1494 40.0168C72.25 40.1175 72.3695 40.1973 72.501 40.2518C72.6325 40.3063 72.7735 40.3343 72.9158 40.3343ZM46.7928 22.1821H40.0102V7.13001H46.7928V22.1821ZM5.51683 36.3753V34.0867H43.929V36.3802L5.51683 36.3753ZM35.5655 66.87H25.4475V51.0195C25.4475 49.3831 26.7788 48.0517 28.4155 48.0517H32.5975C34.234 48.0517 35.5655 49.383 35.5655 51.0195V66.87ZM48.6421 55.0229C49.6645 56.2294 50.8018 57.2968 52.1377 58.2574V66.8698H37.7336V51.0195C37.7336 48.1876 35.4296 45.8838 32.5977 45.8838H28.4156C25.5837 45.8838 23.2797 48.1877 23.2797 51.0195V66.8698H8.86764V38.5485H43.9289V42.1741C43.9289 43.4322 44.048 44.672 44.2758 45.8838H42.7017C41.6209 45.8838 40.7416 46.7629 40.7416 47.8439V55.0009C40.7416 56.0817 41.6207 56.9611 42.7017 56.9611H46.6832C47.7565 56.9609 48.6301 56.0936 48.6421 55.0229ZM46.4753 51.914V54.7927H42.9098V48.0517H44.813C45.2287 49.3944 45.7859 50.6891 46.4753 51.914Z" fill="#1D5B79"/>
</g>
<defs>
<clipPath id="clip0_104_234">
<rect width="74" height="74" fill="white"/>
</clipPath>
</defs>
</svg>
