<svg width="76" height="76" viewBox="0 0 76 76" fill="none" xmlns="http://www.w3.org/2000/svg">
<path d="M61.1553 40.6334H58.8436V20.7097C58.8436 17.4175 56.1652 14.7391 52.873 14.7391H21.4977L25.4027 3.33361C25.5132 3.01104 25.7217 2.73106 25.9991 2.53284C26.2765 2.33461 26.609 2.22804 26.9499 2.22805H44.2159C44.9149 2.22805 45.5367 2.67232 45.763 3.33376L48.2934 10.7243C48.3408 10.8627 48.415 10.9904 48.5118 11.1002C48.6085 11.2099 48.726 11.2995 48.8574 11.3639C48.9887 11.4282 49.1315 11.4661 49.2775 11.4753C49.4235 11.4844 49.5699 11.4648 49.7083 11.4174C49.8468 11.37 49.9745 11.2958 50.0842 11.199C50.1939 11.1023 50.2836 10.9848 50.3479 10.8535C50.4123 10.7221 50.4501 10.5793 50.4593 10.4333C50.4685 10.2873 50.4488 10.1409 50.4014 10.0025L47.871 2.61205C47.61 1.84997 47.1174 1.18851 46.462 0.720168C45.8066 0.251828 45.0212 3.44241e-05 44.2157 0H26.9498C26.1442 2.11439e-05 25.3589 0.251812 24.7035 0.720155C24.0482 1.1885 23.5556 1.84997 23.2946 2.61205L19.1425 14.7391H18.2926C15.0004 14.7391 12.322 17.4175 12.322 20.7097V47.2502C12.322 47.5456 12.4394 47.829 12.6483 48.0379C12.8572 48.2468 13.1406 48.3642 13.436 48.3642C13.7315 48.3642 14.0148 48.2468 14.2237 48.0379C14.4327 47.829 14.55 47.5456 14.55 47.2502V20.7097C14.55 18.6461 16.229 16.9673 18.2926 16.9673H52.8732C54.9368 16.9673 56.6157 18.6461 56.6157 20.7097V55.2903C56.6157 57.3539 54.9368 59.0329 52.8732 59.0329H18.2924C16.2289 59.0329 14.5499 57.3539 14.5499 55.2903V52.5438C14.5499 52.2483 14.4325 51.9649 14.2236 51.756C14.0147 51.5471 13.7313 51.4297 13.4359 51.4297C13.1404 51.4297 12.857 51.5471 12.6481 51.756C12.4392 51.9649 12.3218 52.2483 12.3218 52.5438V55.2903C12.3218 58.5825 15.0002 61.2609 18.2924 61.2609H19.1424L23.2946 73.3879C23.5555 74.15 24.0481 74.8115 24.7035 75.2799C25.3589 75.7482 26.1442 76 26.9498 76H44.2157C45.0212 76 45.8066 75.7482 46.462 75.2799C47.1173 74.8115 47.6099 74.15 47.8708 73.3879L52.0231 61.2609H52.873C56.1652 61.2609 58.8436 58.5825 58.8436 55.2903V52.5953H61.1553C62.5464 52.5953 63.6782 51.4636 63.6782 50.0724V43.1563C63.6782 41.7651 62.5464 40.6334 61.1553 40.6334ZM45.7629 72.6664C45.6524 72.989 45.4439 73.2689 45.1665 73.4672C44.8891 73.6654 44.5567 73.772 44.2157 73.7719H26.9498C26.6088 73.772 26.2764 73.6654 25.999 73.4672C25.7216 73.2689 25.513 72.989 25.4026 72.6664L21.4975 61.2609H49.6678L45.7629 72.6664ZM61.4501 50.0724C61.45 50.1506 61.4189 50.2255 61.3636 50.2808C61.3083 50.3361 61.2334 50.3671 61.1553 50.3672H58.8436V42.8615H61.1553C61.3178 42.8615 61.4501 42.9937 61.4501 43.1563V50.0724Z" fill="#1D5B79"/>
<path d="M20.0102 24.1582C20.981 24.1582 21.768 23.3712 21.768 22.4004C21.768 21.4296 20.981 20.6426 20.0102 20.6426C19.0394 20.6426 18.2524 21.4296 18.2524 22.4004C18.2524 23.3712 19.0394 24.1582 20.0102 24.1582Z" fill="#1D5B79"/>
<path d="M25.5898 24.1582C26.5606 24.1582 27.3476 23.3712 27.3476 22.4004C27.3476 21.4296 26.5606 20.6426 25.5898 20.6426C24.619 20.6426 23.832 21.4296 23.832 22.4004C23.832 23.3712 24.619 24.1582 25.5898 24.1582Z" fill="#1D5B79"/>
<path d="M22.7736 28.9769C21.1028 30.9771 20.3973 33.6136 20.8377 36.2107C21.1779 38.2164 22.2419 39.5917 24.0861 41.428C25.9705 43.3042 31.7294 48.812 34.1179 51.093C34.5232 51.482 35.0635 51.6985 35.6252 51.6971C36.1869 51.6957 36.7261 51.4764 37.1294 51.0855C38.3976 49.863 39.6648 48.6396 40.9311 47.4152C41.0362 47.3135 41.1204 47.1921 41.1786 47.0579C41.2369 46.9237 41.2681 46.7793 41.2706 46.6331C41.273 46.4868 41.2466 46.3415 41.1929 46.2054C41.1392 46.0693 41.0592 45.9451 40.9575 45.84C40.8558 45.7348 40.7344 45.6506 40.6002 45.5923C40.466 45.5341 40.3216 45.5028 40.1753 45.5004C40.0291 45.4979 39.8837 45.5243 39.7476 45.578C39.6116 45.6318 39.4874 45.7118 39.3823 45.8136C38.1289 47.0253 36.8746 48.2362 35.6195 49.4461C33.7158 47.6281 27.5675 41.7501 25.658 39.8489C23.8879 38.0865 23.2504 37.1119 23.0342 35.838C22.7029 33.8845 23.2312 31.9044 24.4834 30.4052C25.7055 28.9422 27.4273 28.1247 29.3311 28.1038C31.0137 28.0833 32.6065 28.7072 33.8282 29.8549C34.8131 30.7804 36.3449 30.7813 37.3156 29.8573C38.5224 28.7087 40.1038 28.0765 41.7699 28.0765H41.78C42.491 28.0775 43.1891 28.1931 43.8547 28.4198L43.8554 28.4199C46.478 29.3132 48.2372 31.7763 48.233 34.5491C48.23 36.4204 47.514 37.8343 45.5908 39.7659C45.1682 40.1903 44.3312 41.0116 43.1029 42.2065C42.896 42.4136 42.7789 42.6938 42.777 42.9866C42.775 43.2793 42.8884 43.5611 43.0925 43.7709C43.2966 43.9807 43.5751 44.1018 43.8678 44.1079C44.1605 44.114 44.4438 44.0047 44.6565 43.8036C45.8933 42.6003 46.739 41.7707 47.1697 41.338C48.8765 39.624 50.4564 37.6155 50.461 34.5525C50.4667 30.8242 48.1009 27.5123 44.5739 26.3108L44.5731 26.3105C43.6748 26.0048 42.7324 25.8487 41.7835 25.8483H41.7699C39.5295 25.8483 37.4023 26.6987 35.7794 28.2433C35.6664 28.3508 35.4754 28.3453 35.3537 28.231C33.7106 26.6872 31.5574 25.8489 29.3065 25.8757C28.058 25.8891 26.8273 26.1733 25.6994 26.7087C24.5715 27.2441 23.5732 28.018 22.7736 28.9769ZM26.5302 11.3093C26.5302 11.6047 26.6476 11.8881 26.8565 12.097C27.0655 12.3059 27.3488 12.4233 27.6443 12.4233H43.5213C43.8168 12.4233 44.1001 12.3059 44.309 12.097C44.5179 11.8881 44.6353 11.6047 44.6353 11.3093C44.6353 11.0138 44.5179 10.7304 44.309 10.5215C44.1001 10.3126 43.8168 10.1952 43.5213 10.1952H27.6443C27.3488 10.1952 27.0655 10.3126 26.8565 10.5215C26.6476 10.7304 26.5302 11.0138 26.5302 11.3093ZM39.5519 7.1205C39.8474 7.1205 40.1307 7.00313 40.3397 6.79421C40.5486 6.58529 40.6659 6.30194 40.6659 6.00648C40.6659 5.71102 40.5486 5.42767 40.3397 5.21875C40.1307 5.00983 39.8474 4.89246 39.5519 4.89246H31.6133C31.3179 4.89246 31.0345 5.00983 30.8256 5.21875C30.6167 5.42767 30.4993 5.71102 30.4993 6.00648C30.4993 6.30194 30.6167 6.58529 30.8256 6.79421C31.0345 7.00313 31.3179 7.1205 31.6133 7.1205H39.5519ZM27.6443 65.8777H43.5213C43.8168 65.8777 44.1001 65.7603 44.309 65.5514C44.5179 65.3425 44.6353 65.0591 44.6353 64.7637C44.6353 64.4682 44.5179 64.1849 44.309 63.9759C44.1001 63.767 43.8168 63.6497 43.5213 63.6497H27.6443C27.3488 63.6497 27.0655 63.767 26.8565 63.9759C26.6476 64.1849 26.5302 64.4682 26.5302 64.7637C26.5302 65.0591 26.6476 65.3425 26.8565 65.5514C27.0655 65.7603 27.3488 65.8777 27.6443 65.8777ZM39.5519 68.9524H31.6133C31.3179 68.9524 31.0345 69.0698 30.8256 69.2787C30.6167 69.4876 30.4993 69.771 30.4993 70.0665C30.4993 70.3619 30.6167 70.6453 30.8256 70.8542C31.0345 71.0631 31.3179 71.1805 31.6133 71.1805H39.5519C39.8474 71.1805 40.1307 71.0631 40.3397 70.8542C40.5486 70.6453 40.6659 70.3619 40.6659 70.0665C40.6659 69.771 40.5486 69.4876 40.3397 69.2787C40.1307 69.0698 39.8474 68.9524 39.5519 68.9524Z" fill="#1D5B79"/>
</svg>
