<svg width="224" height="674" viewBox="0 0 224 674" fill="none" xmlns="http://www.w3.org/2000/svg">
<path d="M145.722 580.098L187.532 618.419L140.13 670.782C135.401 665.947 149.884 629.77 149.884 629.77L123.713 604.545L145.722 580.098Z" fill="#455A64"/>
<path d="M162.307 611.524C162.918 611.162 163.641 611.037 164.339 611.172C165.036 611.308 165.66 611.695 166.091 612.259C166.479 612.852 166.623 613.572 166.494 614.269C166.365 614.966 165.972 615.587 165.397 616.001C164.754 616.391 163.988 616.527 163.25 616.383C162.512 616.24 161.853 615.826 161.403 615.223C161.058 614.561 160.986 613.79 161.202 613.075C161.418 612.36 161.905 611.758 162.559 611.397" fill="white"/>
<path d="M187.532 618.419L183.328 614.383L139.667 666.472C139.667 666.472 138.574 669.731 140.466 670.95L187.532 618.419Z" fill="#263238"/>
<path d="M148.938 630.38C149.19 630.611 150.472 629.434 152.427 628.908C154.382 628.383 156.064 628.698 156.19 628.383C156.316 628.067 154.466 627.1 152.112 627.752C149.757 628.404 148.643 630.232 148.938 630.38Z" fill="white"/>
<path d="M146.226 638.01C146.436 638.304 147.866 637.59 149.737 637.695C151.607 637.8 152.974 638.599 153.184 638.325C153.394 638.052 152.238 636.602 149.905 636.518C147.571 636.433 145.995 637.695 146.226 638.01Z" fill="white"/>
<path d="M149.989 647.007C150.304 646.776 149.548 645.388 147.298 644.695C145.049 644.001 143.662 644.695 143.767 645.073C143.872 645.451 145.301 645.304 146.941 645.851C148.581 646.397 149.695 647.238 149.989 647.007Z" fill="white"/>
<path d="M143.178 624.326C143.514 624.431 144.208 622.938 145.616 621.593C147.025 620.247 148.517 619.491 148.412 619.175C148.307 618.86 146.415 619.175 144.776 620.731C143.136 622.287 142.863 624.283 143.178 624.326Z" fill="white"/>
<path d="M138.091 617.452C138.091 617.452 139.268 616.695 140.446 614.824C141.139 613.725 141.696 612.546 142.106 611.314C142.34 610.584 142.523 609.84 142.653 609.085C142.757 608.645 142.793 608.191 142.758 607.74C142.729 607.407 142.589 607.093 142.36 606.849C142.131 606.605 141.827 606.445 141.497 606.395C141.203 606.359 140.905 606.394 140.627 606.497C140.349 606.599 140.1 606.766 139.899 606.983C139.594 607.312 139.346 607.688 139.163 608.097C138.786 608.766 138.476 609.47 138.238 610.2C137.832 611.449 137.627 612.754 137.629 614.067C137.512 615.272 137.768 616.483 138.364 617.536C138.554 617.536 138.364 616.169 138.491 614.088C138.592 612.88 138.861 611.691 139.289 610.557C139.531 609.896 139.826 609.257 140.172 608.644C140.53 607.95 140.971 607.467 141.328 607.551C141.686 607.635 141.518 607.551 141.581 607.887C141.628 608.215 141.628 608.548 141.581 608.875C141.473 609.585 141.319 610.288 141.118 610.977C140.792 612.154 140.348 613.295 139.794 614.383C139.165 615.37 138.596 616.395 138.091 617.452Z" fill="white"/>
<path d="M138.764 617.452C138.89 617.452 138.427 616.064 136.851 614.467C135.922 613.546 134.841 612.792 133.656 612.239C132.981 611.912 132.278 611.652 131.553 611.461C131.081 611.285 130.571 611.235 130.073 611.316C129.576 611.397 129.108 611.606 128.716 611.923C128.504 612.16 128.366 612.452 128.317 612.766C128.269 613.079 128.312 613.4 128.442 613.689C128.634 614.095 128.874 614.476 129.157 614.824C129.661 615.443 130.257 615.982 130.923 616.422C132.032 617.173 133.311 617.635 134.644 617.767C136.935 617.977 138.217 617.178 138.133 617.073C137.01 617.101 135.886 617.052 134.77 616.926C133.608 616.695 132.511 616.214 131.553 615.518C131.003 615.115 130.508 614.642 130.082 614.109C129.599 613.521 129.346 612.911 129.599 612.743C129.853 612.604 130.135 612.519 130.424 612.493C130.713 612.468 131.005 612.503 131.28 612.596C131.999 612.748 132.703 612.966 133.382 613.248C134.487 613.717 135.52 614.339 136.451 615.097C137.881 616.422 138.595 617.557 138.764 617.452Z" fill="white"/>
<path d="M155.833 616.989L155.307 673.746L84.677 673.451C85.1184 666.704 121.716 653.313 121.716 653.313L120.56 616.989H155.833Z" fill="#455A64"/>
<path d="M143.577 650.391C144.253 650.605 144.827 651.059 145.191 651.667C145.555 652.275 145.684 652.995 145.553 653.692C145.392 654.398 144.961 655.013 144.352 655.406C143.743 655.799 143.005 655.938 142.295 655.794C141.572 655.574 140.956 655.092 140.568 654.444C140.179 653.795 140.046 653.025 140.193 652.283C140.462 651.591 140.989 651.029 141.663 650.715C142.337 650.402 143.105 650.361 143.809 650.602" fill="white"/>
<path d="M155.307 673.935V667.839L87.3676 670.151C87.3676 670.151 84.2355 671.517 84.5929 673.746L155.307 673.935Z" fill="#263238"/>
<path d="M120.56 652.998C120.56 653.355 122.304 653.524 123.986 654.638C125.668 655.752 126.592 657.202 126.908 657.055C127.223 656.908 126.719 654.953 124.638 653.629C122.556 652.304 120.496 652.725 120.56 652.998Z" fill="#263238"/>
<path d="M113.139 656.046C113.139 656.382 114.569 656.971 115.725 658.421C116.881 659.872 117.217 661.427 117.575 661.427C117.932 661.427 118.142 659.451 116.65 657.665C115.157 655.878 113.16 655.71 113.139 656.046Z" fill="#263238"/>
<path d="M108.893 664.896C109.208 664.896 109.713 663.235 108.893 661.343C108.073 659.452 106.392 658.695 106.244 658.989C106.097 659.283 107.106 660.292 107.8 661.848C108.494 663.403 108.557 664.854 108.893 664.896Z" fill="#263238"/>
<path d="M121.232 644.674C121.379 644.989 122.956 644.526 124.911 644.674C126.866 644.821 128.379 645.43 128.548 645.136C128.716 644.842 127.286 643.602 124.974 643.475C122.662 643.349 121.064 644.421 121.232 644.674Z" fill="#263238"/>
<path d="M152.28 293.267C158.047 299.537 162.992 306.516 166.995 314.036C171.872 324.189 179.334 345.819 179.334 345.819C179.334 345.819 188.646 378.864 186.565 394.441C184.484 410.017 170.716 516.467 170.716 516.467C170.716 516.467 173.448 600.929 161.551 638.515L159.448 648.478L119.635 641.415L110.806 432.341L86.2957 294.108L152.28 293.267Z" fill="#263238"/>
<path d="M101.347 302.096C101.515 302.096 101.347 300.793 102.881 299.805C103.315 299.51 103.821 299.339 104.345 299.311C104.869 299.283 105.391 299.398 105.854 299.645C106.317 299.891 106.704 300.26 106.973 300.71C107.241 301.161 107.382 301.676 107.38 302.201C107.363 302.725 107.203 303.235 106.917 303.675C106.632 304.115 106.232 304.468 105.76 304.698C105.289 304.927 104.764 305.023 104.241 304.976C103.719 304.928 103.22 304.739 102.797 304.429C101.41 303.399 101.515 302.033 101.347 302.096C101.178 302.159 101.178 302.39 101.241 302.937C101.346 303.754 101.751 304.503 102.377 305.039C102.842 305.435 103.402 305.704 104.002 305.822C104.602 305.94 105.222 305.902 105.803 305.711C106.532 305.476 107.17 305.018 107.627 304.403C108.083 303.787 108.336 303.044 108.35 302.278C108.364 301.511 108.138 300.759 107.704 300.128C107.27 299.496 106.65 299.015 105.929 298.753C105.354 298.543 104.735 298.485 104.131 298.584C103.527 298.684 102.959 298.937 102.482 299.321C101.844 299.811 101.415 300.525 101.283 301.318C101.347 301.802 101.347 302.096 101.347 302.096Z" fill="#455A64"/>
<path d="M55.2055 321.918C55.2055 321.918 40.596 454.455 38.4939 477.221C36.3918 499.987 119.025 621.361 119.025 621.361L153.899 580.181L100.716 481.383L118.626 382.9L95.0401 293.982L58.3797 294.423L55.2055 321.918Z" fill="#263238"/>
<path d="M167.541 606.605C167.495 607.576 167.397 608.545 167.247 609.506C167.016 611.397 166.532 614.193 165.881 617.788C164.557 625.019 162.412 635.466 159.575 648.541V648.815H159.301L119.467 641.815H119.151V641.499C118.037 614.172 116.713 581.506 115.284 546.485C113.812 508.773 112.467 473.837 111.332 445.164C108.347 422.041 105.866 403.122 104.142 389.753C103.302 383.131 102.65 377.939 102.209 374.345C101.998 372.6 101.83 371.255 101.725 370.309C101.62 369.363 101.599 368.9 101.599 368.9C101.599 368.9 101.704 369.384 101.83 370.288C101.956 371.192 102.166 372.579 102.419 374.324C102.923 377.897 103.638 383.089 104.521 389.69C106.329 403.017 108.893 422.041 112.025 445.08C113.181 473.753 114.611 508.71 116.124 546.401C117.491 581.422 118.773 614.109 119.845 641.436L119.53 641.079L159.322 648.226L158.986 648.457C161.95 635.403 164.199 624.977 165.608 617.788C166.322 614.193 166.848 611.482 167.142 609.527C167.289 608.581 167.394 607.845 167.457 607.425C167.467 607.15 167.495 606.876 167.541 606.605Z" fill="#455A64"/>
<path d="M107.232 347.081C106.533 347.032 105.83 347.032 105.13 347.081C103.207 347.322 101.256 346.993 99.5178 346.135C98.4221 345.436 97.6215 344.358 97.2685 343.108C96.8777 341.616 96.6521 340.087 96.5958 338.546C96.3015 335.246 96.0283 331.609 95.776 327.783C95.2505 320.153 94.9773 313.216 94.8091 308.192C94.8091 305.838 94.6409 303.862 94.5989 302.264C94.6085 301.559 94.5452 300.854 94.4097 300.162C94.2742 300.854 94.2108 301.559 94.2204 302.264C94.2204 303.672 94.2204 305.69 94.2204 308.213C94.2204 313.237 94.4097 320.195 94.9142 327.847C95.1664 331.693 95.4817 335.33 95.8181 338.63C95.8939 340.233 96.1621 341.821 96.6169 343.36C97.0509 344.766 97.9959 345.958 99.2655 346.702C100.305 347.268 101.467 347.571 102.65 347.585C103.521 347.614 104.392 347.572 105.256 347.459C105.929 347.419 106.593 347.292 107.232 347.081Z" fill="#455A64"/>
<path d="M56.8031 322.024C58.1703 321.519 59.4531 320.81 60.6079 319.922C63.5049 317.992 66.1403 315.695 68.4487 313.09C70.7436 310.471 72.6804 307.558 74.2084 304.429C74.9201 303.171 75.4308 301.809 75.7219 300.393C71.4955 309.164 64.9539 316.614 56.8031 321.94V322.024Z" fill="#455A64"/>
<path d="M70.2775 26.7432C66.8724 29.9193 64.2869 33.8727 62.7421 38.2655C61.1973 42.6583 60.7391 47.3599 61.4067 51.9683C62.0794 56.4247 63.698 61.4487 61.0284 65.0853C58.3587 68.7219 52.7251 69.0162 50.2236 72.6949C47.2807 77.0462 50.4549 82.9321 49.6771 88.1242C49.2118 90.5572 47.902 92.7477 45.979 94.3092C44.056 95.8707 41.6434 96.7028 39.1666 96.6587C45.2797 100.906 52.4421 103.393 59.8722 103.848L64.9382 96.2383C64.0976 97.6676 63.757 99.3362 63.9702 100.981C64.1833 102.625 64.9381 104.152 66.1154 105.319C68.5456 107.589 71.5843 109.101 74.8601 109.671C82.5879 111.432 90.618 111.387 98.3255 109.538C106.033 107.69 113.21 104.088 119.298 99.013" fill="#263238"/>
<path d="M157.409 60.0402C155.743 56.8254 154.241 53.5279 152.911 50.1603C150.809 42.6979 153.773 33.8691 149.589 27.3106C146.604 22.6439 140.845 20.668 135.442 19.4488C130.04 18.2296 124.259 17.3467 120.034 13.668C116.944 11.0404 115.01 7.25662 111.899 4.60799C107.506 0.866264 101.388 -0.0586292 95.5446 0.00443353C89.5607 -0.0910397 83.6531 1.3569 78.3915 4.20862C75.78 5.64689 73.5427 7.67818 71.8595 10.139C70.1764 12.5998 69.0945 15.4214 68.7009 18.3767C68.8037 21.2685 68.6842 24.1639 68.3435 27.0373C67.5658 30.1274 65.3796 32.6709 64.1394 35.5928C62.8871 38.7347 62.7155 42.2039 63.6518 45.454C64.588 48.7041 66.5788 51.5504 69.3106 53.5447L113.854 103.007C122.641 105.592 143.031 100.148 149.148 93.3583C155.265 86.5685 160.899 68.4906 157.409 60.0402Z" fill="#263238"/>
<path d="M69.8153 46.7128C70.5931 34.6678 78.6231 19.9111 90.605 21.2144L128.064 30.7579C129.823 30.9518 131.446 31.7973 132.614 33.1278C133.781 34.4583 134.407 36.1775 134.37 37.947L130.166 128.337H130.44C130.44 128.337 115.494 163.862 90.7311 156.085C85.8332 154.529 89.9743 139.121 89.0074 133.592L88.566 119.319C88.566 112.025 88.566 109.04 88.566 109.103C88.566 109.166 73.1996 106.517 70.0465 86.4213C68.4489 76.4574 68.9744 60.0821 69.8153 46.7128Z" fill="#FFBF9D"/>
<path d="M72.737 63.866C72.7254 64.5356 72.9762 65.1831 73.4358 65.6702C73.8954 66.1573 74.5272 66.4453 75.1964 66.4726C75.5239 66.4984 75.8534 66.4588 76.1656 66.3561C76.4777 66.2535 76.7663 66.0899 77.0147 65.8748C77.2631 65.6596 77.4663 65.3973 77.6124 65.103C77.7585 64.8087 77.8447 64.4882 77.866 64.1603C77.872 63.4888 77.6166 62.8413 77.1536 62.3548C76.6907 61.8683 76.0566 61.581 75.3855 61.5538C75.0585 61.5251 74.729 61.5627 74.4168 61.6645C74.1046 61.7662 73.8163 61.93 73.5689 62.1459C73.3216 62.3619 73.1204 62.6255 72.9774 62.9211C72.8344 63.2167 72.7527 63.5381 72.737 63.866Z" fill="#263238"/>
<path d="M97.6256 64.7067C97.6196 65.3782 97.875 66.0257 98.338 66.5122C98.8009 66.9987 99.435 67.286 100.106 67.3132C100.434 67.339 100.763 67.2994 101.075 67.1968C101.387 67.0941 101.676 66.9305 101.924 66.7153C102.173 66.5002 102.376 66.2379 102.522 65.9436C102.668 65.6493 102.754 65.3289 102.776 65.0009C102.782 64.3294 102.526 63.6819 102.063 63.1954C101.6 62.7089 100.966 62.4216 100.295 62.3943C99.9671 62.3657 99.6365 62.4032 99.3231 62.5047C99.0097 62.6063 98.72 62.7697 98.471 62.9854C98.222 63.2011 98.0188 63.4646 97.8736 63.7602C97.7284 64.0559 97.6441 64.3778 97.6256 64.7067Z" fill="#263238"/>
<path d="M72.3378 55.5837C72.6531 56.0251 74.9233 54.3434 77.9293 54.5536C80.9353 54.7639 83.0164 56.6557 83.3738 56.2563C83.7311 55.8569 83.2687 55.2894 82.3648 54.4065C81.2004 53.2848 79.675 52.6139 78.0613 52.5138C76.4477 52.4137 74.8511 52.8908 73.557 53.86C72.569 54.6167 72.1907 55.3734 72.3378 55.5837Z" fill="#263238"/>
<path d="M99.2443 56.6979C99.6437 57.1183 101.851 55.2264 105.067 55.1423C108.283 55.0582 110.701 56.6769 111.037 56.2354C111.373 55.794 110.806 55.3105 109.755 54.5327C108.348 53.5643 106.669 53.0708 104.962 53.1243C103.265 53.1917 101.639 53.8201 100.337 54.9111C99.2443 55.7309 98.971 56.5297 99.2443 56.6979Z" fill="#263238"/>
<path d="M90.5206 76.3314C89.0577 75.8857 87.5481 75.6106 86.0221 75.5116C85.3074 75.5116 84.6347 75.3014 84.5296 74.8179C84.4676 74.084 84.6367 73.349 85.0131 72.7158C85.6648 71.0131 86.3795 69.2264 87.1152 67.3345C89.062 62.7724 90.6436 58.0629 91.8449 53.2505C89.5236 57.6461 87.5622 62.2226 85.9801 66.9351L83.878 72.3374C83.4456 73.1944 83.3194 74.1736 83.5206 75.1122C83.6211 75.3635 83.7774 75.5887 83.9777 75.7708C84.178 75.9529 84.417 76.0871 84.6768 76.1633C85.0684 76.2651 85.4705 76.3215 85.875 76.3314C87.4166 76.5385 88.979 76.5385 90.5206 76.3314Z" fill="#263238"/>
<path d="M88.5237 109.124C97.9815 109.28 107.297 106.805 115.43 101.977C115.43 101.977 108.641 116.04 88.5447 114.127L88.5237 109.124Z" fill="#FF9A6C"/>
<path d="M91.9922 83.2052C92.6551 82.6794 93.4406 82.3303 94.2751 82.1906C95.1096 82.0509 95.9659 82.1252 96.764 82.4064C97.3457 82.6016 97.883 82.9102 98.3448 83.3143C98.8067 83.7184 99.1839 84.21 99.4546 84.7607C99.7115 85.2922 99.7989 85.8898 99.7049 86.4726C99.6109 87.0554 99.3401 87.5952 98.9291 88.019C98.3776 88.3949 97.7257 88.596 97.0582 88.596C96.3908 88.596 95.7389 88.3949 95.1874 88.019C94.0126 87.2823 92.9975 86.3172 92.2024 85.1811C91.9519 84.8873 91.7529 84.5533 91.6138 84.1931C91.5528 84.0203 91.5421 83.8337 91.583 83.6551C91.624 83.4765 91.7149 83.3131 91.8451 83.1841" fill="#FF9A6C"/>
<path d="M98.6767 79.9259C98.2142 79.9259 98.2142 82.8898 95.6286 85.034C93.0431 87.1781 89.8479 86.8207 89.8269 87.2412C89.8058 87.6616 90.5416 87.8297 91.9289 87.8718C93.6939 87.893 95.411 87.2983 96.7848 86.1901C98.0729 85.1368 98.9142 83.6346 99.1392 81.9859C99.2443 80.6406 98.8659 79.9048 98.6767 79.9259Z" fill="#263238"/>
<path d="M98.74 49.2354C99.0133 49.9922 101.767 49.6558 105.046 50.0552C108.326 50.4546 110.932 51.3375 111.353 50.6648C111.542 50.3495 111.1 49.6348 110.028 48.8991C108.616 48.005 107.02 47.4438 105.359 47.2581C103.698 47.0723 102.017 47.2669 100.443 47.827C99.2445 48.2895 98.6139 48.8781 98.74 49.2354Z" fill="#263238"/>
<path d="M74.3555 44.2744C74.9231 44.905 77.1092 44.2744 79.7158 44.2744C82.3224 44.2744 84.5717 44.7158 85.0762 44.0432C85.3074 43.7278 84.95 43.0972 83.983 42.5086C82.6506 41.7841 81.1514 41.4222 79.6352 41.4591C78.119 41.496 76.6391 41.9304 75.3435 42.7188C74.4186 43.3284 74.1243 43.9591 74.3555 44.2744Z" fill="#263238"/>
<path d="M136.409 33.0282C134.076 30.5354 131.029 28.8248 127.686 28.1303C113.651 23.8977 99.1651 21.3433 84.5297 20.5208C82.9531 23.6108 84.9291 27.5417 87.809 29.4967C90.8666 31.1686 94.1635 32.3597 97.5837 33.0282C99.296 33.3643 100.923 34.042 102.368 35.0208C103.812 35.9995 105.045 37.2593 105.992 38.7249C107.653 42.0252 106.77 46.1452 108.262 49.5296C110.869 55.3524 119.361 56.6557 121.926 62.4995C123.86 66.9139 121.611 71.9379 121.295 76.7307C121.137 79.1778 121.504 81.6304 122.369 83.9247C123.235 86.2191 124.58 88.3022 126.315 90.0352C128.05 91.7682 130.135 93.111 132.43 93.9741C134.726 94.8371 137.179 95.2005 139.625 95.0399C139.331 77.8027 139.044 60.5656 138.764 43.3285C138.722 39.7549 138.574 35.887 136.409 33.0282Z" fill="#263238"/>
<path d="M174.205 73.8088C171.304 71.5806 167.752 69.7308 166.427 66.3254C164.472 61.3855 168.088 55.1422 165.124 50.7279C162.433 46.6918 155.412 47.4276 152.869 43.3075C150.893 40.0913 152.659 37.0012 151.776 34.0583C151.054 32.533 149.874 31.2713 148.401 30.4496C146.927 29.628 145.233 29.2874 143.556 29.4757L122.641 65.2113C121.316 76.7517 119.593 82.995 122.536 89.4694C124.396 92.9022 125.883 96.5245 126.971 100.274C127.494 102.162 127.506 104.155 127.008 106.049C126.509 107.943 125.517 109.672 124.133 111.058C138.238 111.058 150.809 102.797 162.412 94.8087L174.709 86.4003C176.065 85.6357 177.202 84.5355 178.01 83.2052C179.67 79.8629 177.022 76.0371 174.205 73.8088Z" fill="#263238"/>
<path d="M162.518 91.3193C162.046 91.5133 161.551 91.6475 161.046 91.7187C159.593 91.9793 158.106 91.9793 156.653 91.7187C154.345 91.3326 152.174 90.363 150.346 88.9019C147.918 86.8974 146.28 84.0969 145.722 80.9981C145.366 79.2149 145.366 77.3789 145.722 75.5957C146.211 73.7036 146.953 71.8864 147.929 70.1933C148.958 68.4495 149.73 66.5662 150.22 64.6018C150.467 63.593 150.487 62.5422 150.28 61.5247C150.073 60.5071 149.643 59.5479 149.022 58.7159C147.614 57.0973 145.217 56.8661 142.968 56.1303C141.706 55.8418 140.582 55.1292 139.782 54.1116C138.983 53.0939 138.557 51.8328 138.575 50.5388C138.689 48.0376 139.041 45.5529 139.626 43.1184C139.817 41.9236 139.731 40.7009 139.373 39.5448C138.978 38.4093 138.187 37.4542 137.145 36.8542C134.895 35.7754 132.402 35.3043 129.914 35.4878C127.362 35.5854 124.825 35.0434 122.536 33.9112C120.332 32.7626 118.486 31.0323 117.196 28.9083C116.071 26.8544 115.283 24.6328 114.863 22.3287C114.465 20.2094 113.845 18.1379 113.013 16.1485C112.159 14.3209 110.91 12.7056 109.356 11.4188C106.786 9.28252 103.607 8.01404 100.273 7.79503C96.9387 7.57602 93.6208 8.41772 90.7942 10.1996C88.8434 11.3918 87.1207 12.9223 85.7071 14.7191C84.525 16.2753 83.5236 17.9608 82.7222 19.7431C82.7222 19.7431 82.7222 19.617 82.7222 19.3647C82.7222 19.1125 82.9323 18.7551 83.1425 18.3137C83.6892 16.9728 84.3949 15.7024 85.2446 14.5299C86.6388 12.6556 88.3713 11.0585 90.3527 9.82126C92.9698 8.11999 96.0182 7.2011 99.1395 7.17261C102.964 7.18155 106.672 8.49396 109.65 10.8933C111.283 12.2442 112.609 13.9285 113.539 15.8332C114.392 17.8638 115.033 19.9771 115.452 22.1395C115.886 24.3441 116.651 26.4703 117.722 28.4458C118.941 30.4349 120.677 32.0553 122.746 33.1334C124.935 34.199 127.355 34.7046 129.788 34.6049C132.419 34.4092 135.055 34.9248 137.419 36.0974C138.626 36.7907 139.543 37.8948 140.004 39.2085C140.396 40.4876 140.49 41.8396 140.277 43.1604C139.715 45.5495 139.364 47.9832 139.226 50.4336C139.25 51.5667 139.617 52.666 140.277 53.5868C141.016 54.4221 141.979 55.0276 143.052 55.3315C144.145 55.6889 145.28 55.9201 146.416 56.2985C147.572 56.6322 148.618 57.2711 149.443 58.1483C150.139 59.0649 150.62 60.1269 150.85 61.2552C151.079 62.3835 151.051 63.549 150.767 64.6648C150.264 66.6982 149.464 68.6461 148.391 70.4456C147.427 72.0847 146.685 73.8449 146.184 75.6798C145.825 77.3745 145.789 79.1219 146.079 80.8299C146.586 83.8121 148.127 86.5208 150.431 88.4815C152.183 89.9421 154.283 90.9267 156.527 91.3404C158.504 91.7443 160.543 91.7371 162.518 91.3193Z" fill="#455A64"/>
<path d="M179.397 65.7998C179.662 66.1193 179.856 66.4921 179.965 66.8929C180.273 68.0748 180.147 69.3283 179.607 70.4244C179.245 71.2511 178.681 71.9738 177.968 72.5265C177.101 73.1334 176.081 73.4832 175.025 73.5355C173.737 73.5955 172.457 73.2997 171.326 72.6804C170.195 72.0612 169.257 71.1425 168.613 70.025C167.853 68.7463 167.406 67.3055 167.31 65.8208C167.231 64.2259 167.444 62.6299 167.941 61.1121C168.824 58.0011 170.631 54.8059 170.4 51.3584C170.404 50.4812 170.23 49.6121 169.891 48.8032C169.552 47.9942 169.053 47.2619 168.424 46.6497C166.906 45.5926 165.038 45.1633 163.211 45.4516C161.177 45.7539 159.105 45.6898 157.094 45.2624C156.033 44.9172 155.107 44.2482 154.445 43.3495C153.809 42.4527 153.378 41.4262 153.184 40.3435C152.917 38.2499 152.917 36.1308 153.184 34.0372C153.352 32.0852 153.093 30.12 152.427 28.2775C151.163 24.7729 148.606 21.8848 145.28 20.2055C142.157 18.9138 138.766 18.4016 135.4 18.713C132.388 18.9403 129.359 18.692 126.424 17.9772C122.192 16.7185 118.534 14.0191 116.082 10.3467C115.164 9.03343 114.488 7.56704 114.085 6.01636C114.701 7.48563 115.454 8.89331 116.334 10.2205C118.839 13.7153 122.444 16.2689 126.572 17.4727C129.459 18.1255 132.43 18.331 135.379 18.0823C138.863 17.7333 142.378 18.2459 145.617 19.5748C149.12 21.3082 151.828 24.3167 153.184 27.9832C153.888 29.9264 154.168 31.9979 154.004 34.0582C153.752 36.0684 153.752 38.1021 154.004 40.1123C154.107 41.0721 154.475 41.9846 155.064 42.7488C155.654 43.513 156.444 44.0992 157.346 44.4426C159.265 44.8188 161.234 44.8685 163.169 44.5897C165.199 44.2849 167.268 44.7907 168.929 45.9981C169.635 46.6785 170.197 47.4949 170.58 48.398C170.963 49.3011 171.159 50.2724 171.157 51.2533C171.213 53.0668 170.913 54.8736 170.274 56.5716C169.707 58.2113 169.055 59.7458 168.592 61.2593C168.104 62.6922 167.883 64.2029 167.941 65.7157C168.011 67.1017 168.415 68.4502 169.118 69.6466C169.706 70.6848 170.568 71.5416 171.609 72.1235C172.651 72.7055 173.832 72.9903 175.025 72.9469C176 72.9143 176.947 72.6084 177.758 72.0641C178.428 71.581 178.975 70.9474 179.355 70.2142C179.887 69.1857 180.05 68.0061 179.818 66.8719C179.703 66.5051 179.562 66.1468 179.397 65.7998Z" fill="#263238"/>
<path d="M32.3558 85.1602C32.0609 86.39 32.1791 87.6828 32.6921 88.8388C32.9794 89.4977 33.4093 90.0847 33.951 90.5572C34.4926 91.0298 35.1324 91.3763 35.8242 91.5715C36.7449 91.7653 37.7013 91.701 38.5879 91.3857C39.4744 91.0704 40.2566 90.5164 40.8482 89.7847C41.5271 88.9254 41.8774 87.8521 41.8362 86.7577C41.8003 85.5468 41.529 84.3545 41.0374 83.2472C40.1125 80.9349 38.4098 78.4545 38.4098 75.3434C38.3999 73.7644 38.7202 72.2007 39.35 70.7527C39.9799 69.3047 40.9055 68.0043 42.0674 66.935C43.2897 65.8007 44.7164 64.909 46.2716 64.3074C47.8574 63.7331 49.5107 63.3657 51.1905 63.2143C52.8183 63.0766 54.4298 62.788 56.0043 62.3525C57.4746 61.9274 58.7477 60.9969 59.5989 59.7248C60.3448 58.4531 60.7097 56.9938 60.6499 55.5207C60.6203 54.095 60.3939 52.6802 59.9773 51.3165C59.0136 48.7016 58.3849 45.9752 58.1064 43.2024C58.0572 40.7285 58.753 38.2969 60.1034 36.2235C61.2258 34.5685 62.6525 33.1418 64.3076 32.0193C65.5293 31.1718 66.6884 30.2375 67.776 29.2235C68.6793 28.3388 69.3943 27.2806 69.8781 26.1124C69.8875 26.1892 69.8875 26.2669 69.8781 26.3437C69.8312 26.5906 69.7535 26.8307 69.6469 27.0584C69.2776 27.9496 68.7426 28.7628 68.0703 29.4547C67.0125 30.5153 65.8739 31.4922 64.6649 32.3766C63.0624 33.5198 61.6807 34.9443 60.5868 36.5808C59.3434 38.5765 58.7148 40.894 58.7791 43.2445C59.0873 45.9549 59.7299 48.6167 60.692 51.1693C61.151 52.6266 61.4056 54.1406 61.4487 55.6678C61.5013 57.3002 61.1012 58.9154 60.2926 60.3345C59.3414 61.7744 57.9118 62.8316 56.2565 63.3194C54.635 63.7763 52.974 64.079 51.2956 64.2233C49.6818 64.365 48.0925 64.7111 46.5659 65.2533C45.1106 65.8273 43.7716 66.6606 42.614 67.7128C41.5288 68.7062 40.6621 69.9143 40.0686 71.2605C39.4751 72.6066 39.168 74.0614 39.1666 75.5326C39.1666 78.3704 40.7221 80.7458 41.668 83.1842C42.1772 84.3743 42.4485 85.6526 42.4668 86.9469C42.4872 88.1753 42.0783 89.3722 41.3107 90.3313C40.6437 91.1368 39.7642 91.7391 38.7721 92.0698C37.78 92.4005 36.7149 92.4464 35.6981 92.2022C34.4887 91.8086 33.4579 90.9993 32.7883 89.918C32.1188 88.8368 31.8538 87.5533 32.0405 86.2953C32.0674 85.8994 32.1747 85.5132 32.3558 85.1602Z" fill="#263238"/>
<path d="M156.232 158.103L145.89 295.495L95.0193 293.982L55.8784 301.907L66.2838 152.889L87.2837 129.199L101.767 157.745L130.271 124.848L156.232 158.103Z" fill="white"/>
<path d="M130.944 112.046L141.686 121.043L186.25 134.77L170.085 254.904L183.328 312.838L197.265 367.387C197.265 367.387 156.19 378.57 145.617 372.453C135.043 366.336 122.136 306.994 118.289 292.91C114.443 278.826 108.494 236.91 111.226 214.607C113.959 192.304 118.668 159.406 121.022 148.055C123.376 136.703 130.944 112.046 130.944 112.046Z" fill="#1D5B79"/>
<path d="M186.25 134.769C186.25 134.769 196.929 148.727 199.956 162.097C205.064 184.757 224.823 246.601 223.646 261.105C222.469 275.61 145.869 301.865 145.869 301.865L142.737 261.547L178.409 242.817L168.614 204.811" fill="#1D5B79"/>
<path d="M168.613 204.811C168.625 205.04 168.668 205.266 168.739 205.484C168.844 205.967 168.991 206.598 169.181 207.418C169.622 209.162 170.232 211.622 171.031 214.901C172.691 221.481 175.067 230.982 178.073 242.901L178.241 242.544L142.505 261.21L142.274 261.336V261.61C143.199 273.865 144.25 287.486 145.343 301.949V302.558L145.932 302.348C160.94 297.072 177.085 290.913 193.355 283.429C198.715 280.907 203.865 278.321 208.931 275.399C213.997 272.477 218.853 269.471 222.406 264.889C222.839 264.301 223.206 263.666 223.499 262.997C223.652 262.654 223.765 262.294 223.835 261.925C223.943 261.571 223.993 261.202 223.982 260.832C224.03 259.429 223.981 258.024 223.835 256.628C223.604 253.874 223.099 251.204 222.658 248.556C221.635 243.272 220.5 238.15 219.252 233.189C214.313 213.303 209.078 195.646 204.979 180.637C202.877 173.196 201.132 166.448 199.682 160.457C198.206 155.387 196.131 150.511 193.502 145.931C191.883 143.039 190.115 140.232 188.205 137.523C187.553 136.598 187.027 135.883 186.67 135.421C186.494 135.186 186.304 134.962 186.103 134.748C186.103 134.748 186.25 135.001 186.586 135.484L188.036 137.586C189.277 139.499 191.106 142.316 193.145 146.121C195.707 150.694 197.718 155.556 199.135 160.604C200.544 166.574 202.247 173.385 204.286 180.826C208.322 195.772 213.493 213.472 218.37 233.378C219.589 238.339 220.703 243.468 221.733 248.703C222.153 251.33 222.637 253.979 222.868 256.691C223.001 258.032 223.05 259.38 223.015 260.727C222.92 262.021 222.428 263.254 221.607 264.258C218.286 268.462 213.304 271.552 208.427 274.474C203.55 277.396 198.274 279.961 192.934 282.462C176.727 289.988 160.583 296.168 145.616 301.381L146.247 301.801C145.112 287.36 144.04 273.739 143.073 261.483L142.841 261.883L178.409 242.964L178.619 242.859V242.607L171.304 214.691C170.442 211.475 169.769 208.994 169.307 207.249L168.76 205.337C168.726 205.158 168.676 204.982 168.613 204.811Z" fill="#263238"/>
<path d="M88.5449 114.863L82.8482 122.388L50.8964 134.622C50.8964 134.622 48.3529 164.052 48.3529 173.006C48.3529 181.961 52.0736 281.811 52.0736 286.519C52.0736 291.228 34.0587 355.027 35.6352 358.936C37.2118 362.846 55.9835 365.6 55.9835 365.6C55.9835 365.6 63.0465 310.399 63.0465 291.606C63.0465 272.814 63.8243 226.631 67.7342 203.907C71.6441 181.184 88.7341 131.406 88.7341 131.406L88.5449 114.863Z" fill="#1D5B79"/>
<path d="M50.8964 134.622C50.8964 134.622 42.3409 138.322 41.3739 158.04C40.407 177.757 38.7883 222.427 38.7883 222.427C38.7883 222.427 33.2809 229.868 32.6292 236.027C31.9776 242.186 21.6353 278.069 21.6353 278.069L44.9265 285.826L50.8964 274.832L55.9414 165.796L50.8964 134.622Z" fill="#1D5B79"/>
<path d="M62.5628 302.096C62.5724 301.942 62.5724 301.788 62.5628 301.634V300.267C62.5628 298.964 62.5628 297.219 62.5628 294.991C62.5628 290.324 62.3106 283.724 62.1214 275.61C61.743 259.234 61.0703 236.637 60.6709 211.664C60.6709 208.532 60.6709 205.358 60.6709 202.415C60.6709 199.472 60.9863 196.445 61.2175 193.502C61.6799 187.616 62.1424 181.961 62.6889 176.685C63.2355 171.409 63.8661 166.175 64.6649 161.487C65.4372 157.111 66.6631 152.828 68.3226 148.706C70.709 142.714 73.4465 136.867 76.5207 131.196C77.5717 129.241 78.4126 127.707 79.0432 126.571L79.6949 125.373C79.842 125.1 79.9051 124.953 79.8841 124.953C79.7754 125.057 79.6833 125.178 79.6108 125.31L78.854 126.466C78.2234 127.496 77.2985 129.01 76.1844 131.007C72.9609 136.63 70.1099 142.458 67.6499 148.454C65.9436 152.608 64.6686 156.926 63.8451 161.34C63.0043 166.091 62.3526 171.22 61.743 176.601C61.1334 181.983 60.671 187.658 60.1875 193.523C59.9562 196.445 59.6199 199.43 59.6199 202.52C59.6199 205.61 59.6199 208.658 59.6199 211.79C60.0403 236.763 60.7971 259.36 61.3646 275.736C61.68 283.85 61.9532 290.45 62.1214 295.096C62.2475 297.324 62.3316 299.09 62.3946 300.372C62.3946 300.919 62.3946 301.381 62.3946 301.739C62.4353 301.864 62.4918 301.985 62.5628 302.096Z" fill="#263238"/>
<path d="M112.992 261.147C113.11 260.665 113.181 260.172 113.202 259.676C113.202 258.709 113.412 257.279 113.517 255.471C113.728 251.793 113.917 246.454 113.812 239.853C113.812 236.553 113.644 232.937 113.433 229.069C113.407 224.989 113.852 220.919 114.758 216.94C116.889 207.856 119.599 198.918 122.872 190.181C126.277 180.868 129.809 172.103 133.067 164.178C134.729 160.45 136.182 156.632 137.418 152.742C138.469 149.022 139.142 145.469 139.731 142.232C140.866 135.757 141.475 130.46 141.833 126.781C142.022 124.953 142.169 123.523 142.232 122.577C142.288 122.088 142.288 121.595 142.232 121.106C142.126 121.584 142.049 122.069 142.001 122.556C141.854 123.607 141.664 125.016 141.433 126.76C140.908 130.397 140.214 135.673 138.995 142.106C138.385 145.322 137.67 148.853 136.598 152.511C135.338 156.357 133.871 160.132 132.205 163.82C128.905 171.724 125.352 180.49 121.947 189.823C118.702 198.595 116.034 207.569 113.959 216.688C113.056 220.759 112.633 224.921 112.698 229.09C112.95 232.937 113.118 236.532 113.202 239.832C113.391 246.411 113.202 251.73 113.202 255.408C113.202 257.174 113.097 258.583 113.055 259.613C113.013 260.643 112.971 261.126 112.992 261.147Z" fill="#263238"/>
<path d="M0.740416 258.057L22.1186 286.961C22.5577 287.549 23.1528 288.003 23.8363 288.27C24.5199 288.538 25.2648 288.608 25.9865 288.474L118.478 271.006C119.021 270.899 119.535 270.678 119.987 270.358C120.439 270.039 120.818 269.627 121.1 269.151C121.381 268.675 121.56 268.145 121.622 267.595C121.685 267.045 121.631 266.488 121.463 265.961L111.479 235.27C111.188 234.371 110.58 233.607 109.767 233.124C108.955 232.64 107.994 232.469 107.064 232.643L3.22087 251.919C2.5698 252.035 1.95892 252.315 1.44543 252.732C0.931947 253.149 0.532632 253.689 0.284817 254.303C0.0370026 254.916 -0.0512033 255.582 0.0284709 256.239C0.108145 256.895 0.353128 257.521 0.740416 258.057Z" fill="#263238"/>
<path d="M199.955 245.339C199.116 244.286 198.054 243.431 196.844 242.838C194.02 241.185 190.816 240.293 187.544 240.249C184.273 240.205 181.045 241.01 178.178 242.586C176.924 243.097 175.808 243.897 174.919 244.919C174.919 245.045 176.223 244.12 178.409 243.132C181.239 241.818 184.327 241.15 187.448 241.177C190.557 241.214 193.621 241.932 196.424 243.279C198.673 244.52 199.85 245.466 199.955 245.339Z" fill="#263238"/>
<g opacity="0.3">
<path d="M180.175 299.363L141.56 313.573L137.755 298.417L120.455 301.907L118.121 293.141L145.259 289.336L145.533 301.907L177.947 289.673L180.175 299.363Z" fill="black"/>
</g>
<path d="M143.052 264.805C143.052 264.805 135.737 258.646 133.487 257.237C131.238 255.829 123.566 250.805 120.076 251.33L116.608 251.856L119.74 261.063C119.74 261.063 91.7189 256.859 87.8931 261.42C84.0673 265.982 92.0973 266.823 96.3015 267.327C100.506 267.832 113.896 270.123 113.896 270.123C113.896 270.123 78.9172 266.297 76.4788 270.123C74.0404 273.949 79.8631 274.811 79.8631 274.811L102.986 284.039L105.635 285.09L108.304 288.558C108.304 288.558 117.827 295.18 120.77 294.297C123.713 293.414 144.481 289.336 144.481 289.336L143.052 264.805Z" fill="#FFBF9D"/>
<path d="M118.71 280.655C116.961 279.93 115.144 279.381 113.286 279.015C108.856 277.925 104.373 277.062 99.8541 276.429C94.5568 275.694 89.722 275.336 86.2115 275.21C84.3208 275.057 82.4196 275.092 80.5359 275.315C82.3956 275.661 84.2789 275.865 86.1695 275.925C89.6379 276.219 94.4307 276.682 99.7069 277.417C104.983 278.153 109.713 279.036 113.139 279.709C114.97 280.162 116.832 280.478 118.71 280.655Z" fill="#FF9A6C"/>
<path d="M115.536 287.36C113.989 286.443 112.285 285.823 110.512 285.531C108.828 284.924 107.045 284.638 105.256 284.691C106.799 285.6 108.494 286.219 110.259 286.519C111.95 287.128 113.74 287.413 115.536 287.36Z" fill="#FF9A6C"/>
<path d="M29.455 247.021C29.455 247.021 25.2509 242.228 22.0347 242.228C19.1758 242.228 16.9476 243.889 16.9476 246.096V249.354L29.455 247.021Z" fill="#FFBF9D"/>
<path d="M48.9414 159.301C48.8282 159.719 48.7716 160.15 48.7732 160.583L48.5 164.283C48.2477 167.478 48.0795 172.145 47.9744 177.883C47.7642 189.403 48.2898 205.211 49.4459 222.805C50.6021 240.4 51.548 256.144 51.8003 267.622C51.9264 273.36 51.9684 278.006 51.9264 281.222V284.859C51.8778 285.292 51.8778 285.729 51.9264 286.162C51.9946 285.738 52.0367 285.309 52.0525 284.88C52.0525 283.913 52.1577 282.778 52.2417 281.18C52.4099 277.964 52.473 273.297 52.4309 267.559C52.4309 256.039 51.506 240.231 50.3288 222.679C49.1517 205.127 48.542 189.319 48.5841 177.841C48.5841 172.103 48.584 167.331 48.7732 164.241C48.7732 162.706 48.7732 161.487 48.7732 160.541C48.8631 160.133 48.9193 159.718 48.9414 159.301Z" fill="#263238"/>
<path d="M165.838 200.775C165.977 199.928 166.033 199.069 166.007 198.211C166.007 196.55 166.133 194.154 166.343 191.211C166.882 183.535 168.141 175.927 170.106 168.487C172.127 161.058 174.829 153.831 178.178 146.899C179.481 144.25 180.574 142.127 181.394 140.592C181.849 139.862 182.229 139.087 182.529 138.28C181.96 138.922 181.466 139.628 181.058 140.382C180.133 141.77 178.955 143.851 177.547 146.478C173.975 153.373 171.156 160.632 169.139 168.13C167.138 175.624 165.961 183.314 165.628 191.064C165.523 194.027 165.523 196.445 165.628 198.106C165.608 199 165.678 199.895 165.838 200.775Z" fill="#263238"/>
<path d="M4.33495 262.892C4.33495 262.892 1.22385 267.096 2.23286 270.375C3.24186 273.655 11.2088 279.751 11.2088 279.751C11.2088 279.751 14.2358 283.345 15.6232 283.345C17.0105 283.345 23.5691 284.523 23.1066 280.613C22.6441 276.703 16.8003 276.03 16.8003 276.03C16.8003 276.03 16.6532 274.622 14.1727 272.835L8.85443 268.946L4.33495 262.892Z" fill="#FFBF9D"/>
<path d="M9.94751 278.679C9.94751 278.679 10.2418 279.267 11.1247 279.772C11.7177 280.115 12.3786 280.325 13.0612 280.387C13.7438 280.449 14.4316 280.361 15.0766 280.129C15.8105 279.847 16.4411 279.349 16.8844 278.7C17.2326 278.161 17.4153 277.533 17.41 276.892C17.41 275.799 16.8214 275.315 16.7373 275.378C16.6532 275.441 16.8424 276.009 16.7373 276.85C16.6447 277.379 16.4128 277.874 16.0656 278.284C15.7183 278.694 15.2681 279.005 14.7613 279.183C13.6947 279.567 12.5277 279.567 11.461 279.183C10.5571 278.847 10.0316 278.553 9.94751 278.679Z" fill="#FF9A6C"/>
<path d="M50.2866 240.715C49.2184 234.565 46.1698 228.933 41.6049 224.676C41.3737 224.865 44.0014 228.039 46.3767 232.454C48.7521 236.868 49.9923 240.715 50.2866 240.715Z" fill="#263238"/>
</svg>
