<svg width="157" height="30" viewBox="0 0 157 30" fill="none" xmlns="http://www.w3.org/2000/svg">
<circle cx="13.5" cy="15" r="13.5" fill="#1D5B79"/>
<circle cx="23.5" cy="15" r="13.5" fill="#2EC0BB"/>
<path d="M64.08 9.726H54.824V14.094H62.13V16.98H54.824V24H51.236V6.84H64.08V9.726ZM72.9832 15.706C72.9832 14.9607 72.7665 14.38 72.3332 13.964C71.9172 13.548 71.3625 13.34 70.6692 13.34C70.0278 13.34 69.4645 13.5047 68.9792 13.834C68.4938 14.1633 68.1385 14.7093 67.9132 15.472L64.8712 14.536C65.1658 13.392 65.8072 12.4733 66.7952 11.78C67.8005 11.0867 69.1438 10.74 70.8252 10.74C71.9692 10.74 72.9658 10.922 73.8152 11.286C74.6645 11.6327 75.3232 12.1613 75.7912 12.872C76.2765 13.5827 76.5192 14.4753 76.5192 15.55V20.828C76.5192 21.4867 76.8312 21.816 77.4552 21.816C77.7498 21.816 78.0272 21.7727 78.2872 21.686L78.0792 23.896C77.6285 24.1213 77.0652 24.234 76.3892 24.234C75.7825 24.234 75.2365 24.13 74.7512 23.922C74.2658 23.714 73.8845 23.402 73.6072 22.986C73.3298 22.5527 73.1912 22.0153 73.1912 21.374V21.27L73.8152 21.166C73.7112 21.8247 73.4252 22.388 72.9572 22.856C72.4892 23.3067 71.9172 23.6533 71.2412 23.896C70.5825 24.1387 69.8978 24.26 69.1872 24.26C68.3032 24.26 67.5405 24.13 66.8992 23.87C66.2578 23.5927 65.7638 23.194 65.4172 22.674C65.0705 22.154 64.8972 21.5127 64.8972 20.75C64.8972 19.7793 65.2092 18.9907 65.8332 18.384C66.4572 17.76 67.3498 17.3353 68.5112 17.11L73.3992 16.122L73.3732 18.332L70.2532 18.956C69.6638 19.0773 69.2132 19.242 68.9012 19.45C68.6065 19.6407 68.4592 19.9613 68.4592 20.412C68.4592 20.8453 68.6152 21.1747 68.9272 21.4C69.2565 21.6253 69.6465 21.738 70.0972 21.738C70.4612 21.738 70.8165 21.6947 71.1632 21.608C71.5098 21.5213 71.8218 21.3827 72.0992 21.192C72.3765 21.0013 72.5932 20.7413 72.7492 20.412C72.9052 20.0827 72.9832 19.684 72.9832 19.216V15.706ZM80.5029 24V11H83.7009L83.8309 13.34C84.2642 12.4733 84.8535 11.8233 85.5989 11.39C86.3615 10.9567 87.2022 10.74 88.1209 10.74C89.0569 10.74 89.8975 10.9567 90.6429 11.39C91.4055 11.8233 91.9775 12.4647 92.3589 13.314C92.6362 12.742 93.0089 12.2653 93.4769 11.884C93.9449 11.5027 94.4649 11.2167 95.0369 11.026C95.6089 10.8353 96.1895 10.74 96.7789 10.74C97.6282 10.74 98.3995 10.9133 99.0929 11.26C99.8035 11.6067 100.367 12.1267 100.783 12.82C101.199 13.5133 101.407 14.3973 101.407 15.472V24H97.8449V16.174C97.8449 15.2207 97.6369 14.5447 97.2209 14.146C96.8049 13.7473 96.2675 13.548 95.6089 13.548C95.0889 13.548 94.6035 13.678 94.1529 13.938C93.7195 14.198 93.3729 14.588 93.1129 15.108C92.8702 15.6107 92.7489 16.2433 92.7489 17.006V24H89.1869V16.174C89.1869 15.2207 88.9702 14.5447 88.5369 14.146C88.1209 13.7473 87.5835 13.548 86.9249 13.548C86.4742 13.548 86.0235 13.6693 85.5729 13.912C85.1395 14.1547 84.7755 14.536 84.4809 15.056C84.2035 15.576 84.0649 16.2607 84.0649 17.11V24H80.5029ZM111.711 6.58C113.271 6.58 114.64 6.84867 115.819 7.386C116.998 7.92333 118.003 8.72067 118.835 9.778L116.833 12.092C116.122 11.1907 115.342 10.532 114.493 10.116C113.661 9.68267 112.69 9.466 111.581 9.466C110.853 9.466 110.246 9.56133 109.761 9.752C109.293 9.94267 108.946 10.194 108.721 10.506C108.513 10.818 108.409 11.1647 108.409 11.546C108.409 12.014 108.591 12.4127 108.955 12.742C109.319 13.054 109.943 13.314 110.827 13.522L114.025 14.25C115.724 14.6313 116.937 15.2033 117.665 15.966C118.41 16.7113 118.783 17.682 118.783 18.878C118.783 20.0047 118.488 20.9753 117.899 21.79C117.31 22.5873 116.486 23.2027 115.429 23.636C114.372 24.052 113.158 24.26 111.789 24.26C110.593 24.26 109.492 24.1213 108.487 23.844C107.499 23.5493 106.615 23.1507 105.835 22.648C105.055 22.1453 104.405 21.5647 103.885 20.906L105.913 18.488C106.312 19.0427 106.806 19.5367 107.395 19.97C107.984 20.4033 108.652 20.75 109.397 21.01C110.16 21.2527 110.957 21.374 111.789 21.374C112.5 21.374 113.098 21.296 113.583 21.14C114.086 20.9667 114.458 20.7327 114.701 20.438C114.961 20.126 115.091 19.7533 115.091 19.32C115.091 18.8693 114.935 18.488 114.623 18.176C114.328 17.8467 113.774 17.5953 112.959 17.422L109.475 16.642C108.47 16.3993 107.603 16.0873 106.875 15.706C106.164 15.3073 105.618 14.8047 105.237 14.198C104.873 13.574 104.691 12.8373 104.691 11.988C104.691 10.9653 104.968 10.0467 105.523 9.232C106.078 8.41733 106.875 7.776 107.915 7.308C108.972 6.82267 110.238 6.58 111.711 6.58ZM127.845 24.26C126.476 24.26 125.28 23.9913 124.257 23.454C123.252 22.9167 122.472 22.1453 121.917 21.14C121.363 20.1347 121.085 18.9213 121.085 17.5C121.085 16.0787 121.363 14.8653 121.917 13.86C122.472 12.8547 123.243 12.0833 124.231 11.546C125.237 11.0087 126.381 10.74 127.663 10.74C128.981 10.74 130.099 11.0087 131.017 11.546C131.936 12.066 132.638 12.7853 133.123 13.704C133.609 14.6053 133.851 15.6367 133.851 16.798C133.851 17.1447 133.843 17.474 133.825 17.786C133.808 18.098 133.782 18.3753 133.747 18.618H123.373V16.148H132.187L130.471 16.772C130.471 15.68 130.22 14.8393 129.717 14.25C129.232 13.6607 128.539 13.366 127.637 13.366C126.979 13.366 126.407 13.522 125.921 13.834C125.453 14.146 125.098 14.614 124.855 15.238C124.613 15.8447 124.491 16.616 124.491 17.552C124.491 18.4707 124.621 19.2333 124.881 19.84C125.159 20.4293 125.54 20.8713 126.025 21.166C126.528 21.4607 127.126 21.608 127.819 21.608C128.582 21.608 129.197 21.4607 129.665 21.166C130.133 20.8713 130.497 20.464 130.757 19.944L133.591 21.036C133.314 21.712 132.889 22.2927 132.317 22.778C131.763 23.2633 131.095 23.636 130.315 23.896C129.553 24.1387 128.729 24.26 127.845 24.26ZM142.772 10.74C143.933 10.74 144.913 10.9133 145.71 11.26C146.525 11.5893 147.175 12.0487 147.66 12.638C148.163 13.21 148.518 13.8513 148.726 14.562L145.398 15.758C145.225 14.978 144.93 14.3887 144.514 13.99C144.098 13.5913 143.535 13.392 142.824 13.392C142.165 13.392 141.602 13.548 141.134 13.86C140.666 14.1547 140.311 14.614 140.068 15.238C139.825 15.8447 139.704 16.6073 139.704 17.526C139.704 18.4447 139.825 19.2073 140.068 19.814C140.328 20.4207 140.692 20.8713 141.16 21.166C141.645 21.4607 142.209 21.608 142.85 21.608C143.37 21.608 143.812 21.5213 144.176 21.348C144.54 21.1573 144.835 20.8887 145.06 20.542C145.303 20.1953 145.467 19.7793 145.554 19.294L148.778 20.334C148.587 21.114 148.232 21.7987 147.712 22.388C147.192 22.9773 146.525 23.4367 145.71 23.766C144.895 24.0953 143.951 24.26 142.876 24.26C141.541 24.26 140.363 23.9913 139.34 23.454C138.317 22.9167 137.529 22.1453 136.974 21.14C136.419 20.1347 136.142 18.9213 136.142 17.5C136.142 16.0787 136.419 14.8653 136.974 13.86C137.529 12.8547 138.309 12.0833 139.314 11.546C140.319 11.0087 141.472 10.74 142.772 10.74Z" fill="#1D5B79"/>
<path d="M153.34 20.022C154.033 20.022 154.579 20.2127 154.978 20.594C155.394 20.9753 155.602 21.4867 155.602 22.128C155.602 22.7867 155.394 23.3067 154.978 23.688C154.579 24.052 154.033 24.234 153.34 24.234C152.646 24.234 152.092 24.052 151.676 23.688C151.277 23.3067 151.078 22.7867 151.078 22.128C151.078 21.4867 151.277 20.9753 151.676 20.594C152.092 20.2127 152.646 20.022 153.34 20.022Z" fill="#2EC0BB"/>
</svg>
