<svg width="17" height="12" viewBox="0 0 17 12" fill="none" xmlns="http://www.w3.org/2000/svg">
<path d="M3.92211 11.9842C3.05053 11.9842 2.31211 11.7784 1.70684 11.3668C1.12579 10.9553 0.69 10.4105 0.399474 9.73263C0.133158 9.05474 0 8.32842 0 7.55368C0 6.44 0.23 5.38684 0.69 4.39421C1.17421 3.40158 1.79158 2.53 2.54211 1.77947C3.31684 1.00474 4.15211 0.411579 5.04789 0L7.55369 1.85211C6.9 2.14263 6.28263 2.49368 5.70158 2.90526C5.12053 3.29263 4.61211 3.72842 4.17632 4.21263C3.76474 4.69684 3.45 5.19316 3.23211 5.70158L3.41368 5.81053C3.55895 5.71369 3.71632 5.64105 3.88579 5.59263C4.07947 5.54421 4.33368 5.52 4.64842 5.52C5.08421 5.52 5.52 5.62895 5.95579 5.84684C6.41579 6.06474 6.79105 6.39158 7.08158 6.82737C7.39632 7.26316 7.55369 7.82 7.55369 8.4979C7.55369 9.24842 7.38421 9.89 7.04526 10.4226C6.70632 10.9311 6.25842 11.3184 5.70158 11.5847C5.14474 11.8511 4.55158 11.9842 3.92211 11.9842ZM12.8195 11.9842C11.9479 11.9842 11.2095 11.7784 10.6042 11.3668C10.0232 10.9553 9.58737 10.4105 9.29684 9.73263C9.03053 9.05474 8.89737 8.32842 8.89737 7.55368C8.89737 6.44 9.12737 5.38684 9.58737 4.39421C10.0716 3.40158 10.6889 2.53 11.4395 1.77947C12.2142 1.00474 13.0495 0.411579 13.9453 0L16.4511 1.85211C15.7974 2.14263 15.18 2.49368 14.5989 2.90526C14.0179 3.29263 13.5095 3.72842 13.0737 4.21263C12.6621 4.69684 12.3474 5.19316 12.1295 5.70158L12.3111 5.81053C12.4563 5.71369 12.6137 5.64105 12.7832 5.59263C12.9768 5.54421 13.2311 5.52 13.5458 5.52C13.9816 5.52 14.4174 5.62895 14.8532 5.84684C15.3132 6.06474 15.6884 6.39158 15.9789 6.82737C16.2937 7.26316 16.4511 7.82 16.4511 8.4979C16.4511 9.24842 16.2816 9.89 15.9426 10.4226C15.6037 10.9311 15.1558 11.3184 14.5989 11.5847C14.0421 11.8511 13.4489 11.9842 12.8195 11.9842Z" fill="white"/>
</svg>
